<?xml version="1.0" encoding="UTF-8" standalone="no"?>
<!DOCTYPE svg PUBLIC "-//W3C//DTD SVG 1.1//EN" "http://www.w3.org/Graphics/SVG/1.1/DTD/svg11.dtd">
<svg xmlns="http://www.w3.org/2000/svg" version="1.1" viewBox="0.00 0.00 512.00 512.00">
<g stroke-width="2.00" fill="none" stroke-linecap="butt">
<path stroke="#695438" vector-effect="non-scaling-stroke" d="
  M 189.07 114.92
  Q 186.79 127.14 195.58 136.08"
/>
<path stroke="#52362a" vector-effect="non-scaling-stroke" d="
  M 195.58 136.08
  Q 199.95 139.54 205.91 142.19"
/>
<path stroke="#808e86" vector-effect="non-scaling-stroke" d="
  M 205.91 142.19
  Q 197.63 152.90 193.31 164.58
  Q 193.13 165.05 193.57 165.30
  L 197.27 167.41"
/>
<path stroke="#695438" vector-effect="non-scaling-stroke" d="
  M 197.27 167.41
  Q 204.86 173.27 207.06 180.97
  Q 211.87 197.83 197.37 209.10
  A 1.53 1.50 81.4 0 0 196.87 209.79
  Q 196.63 210.48 196.74 211.30
  C 197.65 217.75 194.12 224.19 189.05 228.22
  A 0.79 0.79 0.0 0 0 189.29 229.58
  C 198.00 232.50 204.70 239.62 207.71 248.18
  Q 213.41 264.34 204.18 279.23
  Q 203.28 280.69 200.65 283.17
  Q 197.17 286.44 197.25 289.93"
/>
<path stroke="#808e86" vector-effect="non-scaling-stroke" d="
  M 197.25 289.93
  Q 188.35 308.32 187.58 328.50
  C 187.13 340.32 187.96 350.75 191.84 361.46
  Q 192.02 361.96 192.55 361.91
  L 196.79 361.47"
/>
<path stroke="#695438" vector-effect="non-scaling-stroke" d="
  M 196.79 361.47
  Q 212.53 361.69 226.40 371.53"
/>
<path stroke="#808e86" vector-effect="non-scaling-stroke" d="
  M 226.40 371.53
  Q 231.64 375.79 236.14 381.44"
/>
<path stroke="#7f715d" vector-effect="non-scaling-stroke" d="
  M 236.14 381.44
  L 244.29 395.03"
/>
<path stroke="#52362a" vector-effect="non-scaling-stroke" d="
  M 244.29 395.03
  Q 246.10 400.72 247.46 405.85
  Q 248.40 409.41 248.84 412.85
  A 1.47 1.46 -86.5 0 0 249.92 414.08
  Q 262.24 417.31 274.80 414.69
  A 1.37 1.36 86.3 0 0 275.88 413.46
  Q 276.57 404.18 280.53 395.12"
/>
<path stroke="#7f715d" vector-effect="non-scaling-stroke" d="
  M 280.53 395.12
  Q 288.46 378.92 303.71 368.44
  A 0.64 0.64 0.0 0 0 303.76 367.43
  Q 298.87 363.27 295.59 357.52"
/>
<path stroke="#808e86" vector-effect="non-scaling-stroke" d="
  M 295.59 357.52
  Q 291.35 350.18 290.76 344.25
  Q 289.34 330.05 299.18 318.19
  Q 301.68 315.18 306.94 311.57"
/>
<path stroke="#695438" vector-effect="non-scaling-stroke" d="
  M 306.94 311.57
  Q 315.75 306.39 326.85 305.13"
/>
<path stroke="#52362a" vector-effect="non-scaling-stroke" d="
  M 326.85 305.13
  L 333.07 304.84
  Q 333.58 304.82 333.38 304.35
  L 330.23 297.06"
/>
<path stroke="#695438" vector-effect="non-scaling-stroke" d="
  M 330.23 297.06
  Q 328.27 292.95 328.09 291.63
  C 327.31 286.01 335.00 283.17 337.54 288.53
  Q 341.19 296.24 344.91 304.20
  A 1.59 1.57 -19.6 0 0 346.74 305.06
  Q 352.17 303.64 356.70 301.34
  C 359.67 299.84 364.05 299.70 365.87 302.85
  Q 368.06 306.67 364.81 309.79"
/>
<path stroke="#808e86" vector-effect="non-scaling-stroke" d="
  M 364.81 309.79
  C 357.57 314.16 351.57 316.66 344.75 317.28
  Q 341.44 317.58 329.00 317.46
  Q 321.74 317.38 313.85 321.94"
/>
<path stroke="#52362a" vector-effect="non-scaling-stroke" d="
  M 313.85 321.94
  Q 306.78 326.71 304.36 334.37
  C 300.84 345.45 307.99 357.02 318.51 361.62
  Q 320.21 362.37 322.16 362.13
  Q 338.46 360.11 353.06 369.97
  C 354.26 370.78 355.31 370.61 356.73 370.46
  Q 381.23 368.00 394.48 347.77
  Q 399.90 339.50 400.82 329.30"
/>
<path stroke="#808e86" vector-effect="non-scaling-stroke" d="
  M 400.82 329.30
  Q 404.52 307.90 395.20 289.50
  Q 388.29 275.87 377.37 265.12
  Q 372.20 260.03 366.99 255.40"
/>
<path stroke="#695438" vector-effect="non-scaling-stroke" d="
  M 366.99 255.40
  Q 367.56 250.53 370.81 249.09
  Q 372.47 248.35 370.75 247.77
  Q 366.17 246.22 362.77 242.98"
/>
<path stroke="#52362a" vector-effect="non-scaling-stroke" d="
  M 362.77 242.98
  Q 368.78 229.48 370.55 213.24
  Q 373.18 189.14 366.40 168.24
  C 363.61 159.65 359.74 152.72 355.13 145.53
  Q 353.68 143.27 356.01 142.18
  C 358.91 140.83 361.93 139.76 364.40 137.66
  Q 375.21 128.48 372.19 113.88"
/>
<path stroke="#808e86" vector-effect="non-scaling-stroke" d="
  M 372.19 113.88
  Q 366.92 98.99 352.90 95.36
  Q 342.47 92.67 333.66 99.78"
/>
<path stroke="#695438" vector-effect="non-scaling-stroke" d="
  M 333.66 99.78
  Q 325.62 107.03 327.99 117.73
  Q 328.35 119.37 327.06 120.36
  C 325.57 121.49 324.07 120.59 322.88 119.56
  Q 320.85 117.79 318.55 116.79"
/>
<path stroke="#808e86" vector-effect="non-scaling-stroke" d="
  M 318.55 116.79
  Q 316.64 116.18 315.68 114.44
  Q 315.44 114.01 315.01 113.77
  Q 310.51 111.31 309.00 110.77
  Q 270.56 96.99 234.56 116.24"
/>
<path stroke="#695438" vector-effect="non-scaling-stroke" d="
  M 234.56 116.24
  Q 234.04 113.52 233.62 111.27
  Q 232.27 104.11 227.25 99.82"
/>
<path stroke="#808e86" vector-effect="non-scaling-stroke" d="
  M 227.25 99.82
  Q 217.86 92.25 206.74 95.67
  Q 192.50 100.05 189.07 114.92"
/>
<path stroke="#e9c6b2" vector-effect="non-scaling-stroke" d="
  M 227.25 99.82
  Q 222.39 98.10 220.26 98.07
  C 210.75 97.93 200.28 102.86 196.41 111.77
  Q 195.38 114.15 194.44 116.60
  Q 193.82 118.23 192.24 117.47
  Q 190.48 116.63 189.07 114.92"
/>
<path stroke="#e9c6b2" vector-effect="non-scaling-stroke" d="
  M 234.56 116.24
  L 226.32 121.62"
/>
<path stroke="#695438" vector-effect="non-scaling-stroke" d="
  M 226.32 121.62
  Q 226.46 113.39 220.57 110.22
  Q 216.70 108.14 212.06 108.89
  C 202.28 110.46 196.82 123.86 204.60 131.04"
/>
<path stroke="#bb6e56" vector-effect="non-scaling-stroke" d="
  M 204.60 131.04
  Q 199.67 132.22 195.58 136.08"
/>
<path stroke="#7f5648" vector-effect="non-scaling-stroke" d="
  M 222.81 124.53
  Q 220.38 124.88 220.21 123.26
  C 219.82 119.44 219.37 115.86 214.67 115.63
  C 208.59 115.34 205.17 123.08 210.56 127.20
  C 211.73 128.10 213.98 129.19 213.75 130.88"
/>
<path stroke="#52362a" vector-effect="non-scaling-stroke" d="
  M 213.75 130.88
  Q 209.91 135.66 204.60 131.04"
/>
<path stroke="#d1a7a4" vector-effect="non-scaling-stroke" d="
  M 205.91 142.19
  L 212.89 134.12"
/>
<path stroke="#ffc7c1" vector-effect="non-scaling-stroke" d="
  M 212.89 134.12
  L 222.81 124.53"
/>
<path stroke="#808e86" vector-effect="non-scaling-stroke" d="
  M 222.81 124.53
  L 226.32 121.62"
/>
<path stroke="#d16f66" vector-effect="non-scaling-stroke" d="
  M 212.89 134.12
  Q 212.86 133.34 213.44 132.59
  Q 213.80 132.12 213.85 131.80
  Q 213.92 131.30 213.75 130.88"
/>
<path stroke="#bb6e56" vector-effect="non-scaling-stroke" d="
  M 367.36 118.53
  Q 365.68 130.68 352.51 133.88
  Q 352.38 133.91 352.22 133.33"
/>
<path stroke="#695438" vector-effect="non-scaling-stroke" d="
  M 352.22 133.33
  C 364.05 127.10 360.03 110.28 347.21 108.78
  Q 341.15 108.07 337.11 112.40
  Q 333.15 116.65 334.42 121.56
  Q 335.52 125.81 339.34 124.43"
/>
<path stroke="#e88e74" vector-effect="non-scaling-stroke" d="
  M 339.34 124.43
  Q 340.11 125.71 342.34 126.10
  Q 343.94 126.37 345.52 126.93
  Q 347.17 127.52 349.06 127.59"
/>
<path stroke="#695438" vector-effect="non-scaling-stroke" d="
  M 349.06 127.59
  Q 347.29 128.91 346.94 130.37
  Q 346.82 130.87 347.09 131.30
  Q 348.17 133.04 350.27 133.82"
/>
<path stroke="#bb6e56" vector-effect="non-scaling-stroke" d="
  M 350.27 133.82
  Q 351.76 136.85 354.20 138.73
  A 2.43 2.42 45.5 0 1 354.17 142.60
  Q 353.48 143.11 352.59 143.31
  Q 352.12 143.41 352.12 143.89
  Q 352.12 144.03 352.03 144.15
  Q 351.77 144.51 351.31 144.64
  Q 349.68 145.09 348.25 146.07
  Q 347.70 146.45 347.09 146.74
  C 345.75 147.36 345.86 148.93 346.63 149.95
  Q 347.94 151.66 348.74 153.58
  Q 351.46 160.13 353.87 166.82
  C 360.49 185.21 359.92 205.32 355.79 224.07
  Q 354.43 230.22 352.03 236.00
  A 2.25 2.24 22.8 0 0 353.23 238.92
  L 362.77 242.98"
/>
<path stroke="#e9c6b2" vector-effect="non-scaling-stroke" d="
  M 366.99 255.40
  Q 363.60 251.94 361.41 253.93
  C 360.22 255.03 360.19 256.84 361.40 257.90
  C 371.98 267.11 380.96 276.03 387.51 288.32
  Q 392.01 296.76 393.60 303.99
  Q 394.29 307.15 394.65 308.21"
/>
<path stroke="#bb6e56" vector-effect="non-scaling-stroke" d="
  M 394.65 308.21
  Q 391.39 309.67 391.34 313.77
  Q 391.21 324.96 386.43 333.40
  Q 379.49 345.67 367.23 352.03
  C 356.13 357.80 339.16 359.70 327.48 352.86
  Q 321.19 349.18 319.64 342.48
  C 318.74 338.60 319.61 332.81 318.82 328.49
  Q 318.43 326.31 316.49 322.45"
/>
<path stroke="#e9c6b2" vector-effect="non-scaling-stroke" d="
  M 316.49 322.45
  Q 327.43 322.41 338.87 322.41
  Q 346.72 322.41 353.42 320.16
  Q 361.21 317.55 364.81 309.79"
/>
<path stroke="#bb6e56" vector-effect="non-scaling-stroke" d="
  M 330.23 297.06
  Q 322.33 298.37 326.85 305.13"
/>
<path stroke="#e9c6b2" vector-effect="non-scaling-stroke" d="
  M 306.94 311.57
  Q 292.86 292.04 268.74 291.10
  Q 261.40 290.82 254.83 292.83
  C 236.57 298.41 223.44 312.28 218.82 330.56
  Q 213.51 351.55 226.40 371.53"
/>
<path stroke="#e9c6b2" vector-effect="non-scaling-stroke" d="
  M 196.79 361.47
  Q 193.67 352.17 192.92 342.51
  Q 190.94 316.82 201.08 293.11
  A 2.40 2.40 0.0 0 0 200.37 290.29
  Q 199.58 289.66 197.25 289.93"
/>
<path stroke="#e9c6b2" vector-effect="non-scaling-stroke" d="
  M 197.27 167.41
  Q 200.46 159.22 202.09 156.35
  Q 220.06 124.76 253.58 113.98
  Q 263.59 110.76 272.76 110.30
  Q 295.86 109.13 316.87 120.83
  A 1.03 1.02 27.4 0 0 318.30 120.38
  Q 319.10 118.73 318.55 116.79"
/>
<path stroke="#d1a7a4" vector-effect="non-scaling-stroke" d="
  M 372.19 113.88
  Q 371.58 116.56 367.36 118.53"
/>
<path stroke="#e9c6b2" vector-effect="non-scaling-stroke" d="
  M 367.36 118.53
  Q 364.46 109.59 359.00 104.74
  Q 350.38 97.09 338.67 98.44
  Q 337.75 98.55 336.22 99.17
  Q 334.90 99.71 333.66 99.78"
/>
<path stroke="#52362a" vector-effect="non-scaling-stroke" d="
  M 352.22 133.33
  L 350.27 133.82"
/>
<path stroke="#7f5648" vector-effect="non-scaling-stroke" d="
  M 349.06 127.59
  Q 351.79 125.65 352.03 122.54
  C 352.50 116.22 343.52 112.86 341.07 118.86
  C 340.40 120.48 340.91 122.57 339.34 124.43"
/>
<path stroke="#d1a7a4" vector-effect="non-scaling-stroke" d="
  M 313.85 321.94
  Q 314.37 322.58 316.49 322.45"
/>
<path stroke="#d1a7a4" vector-effect="non-scaling-stroke" d="
  M 400.82 329.30
  Q 401.18 317.06 399.99 312.23
  Q 399.16 308.88 394.65 308.21"
/>
<path stroke="#ffe3d7" vector-effect="non-scaling-stroke" d="
  M 295.59 357.52
  Q 295.47 360.75 294.30 363.59
  C 293.10 366.54 292.21 369.38 290.53 372.08
  Q 287.62 376.75 283.47 380.00
  Q 267.06 392.89 247.29 387.07
  Q 243.46 385.94 239.38 383.42
  Q 237.89 382.50 236.14 381.44"
/>
<path stroke="#d18b7b" vector-effect="non-scaling-stroke" d="
  M 280.53 395.12
  Q 274.17 397.54 272.01 398.04
  Q 257.94 401.25 244.29 395.03"
/>
<path stroke="#808e86" vector-effect="non-scaling-stroke" d="
  M 182.51 174.55
  C 182.23 172.71 182.17 170.98 181.40 169.24
  C 177.90 161.41 168.67 157.31 160.57 160.73
  C 154.19 163.42 149.37 169.93 151.51 176.92
  C 152.02 178.61 151.30 180.14 149.85 181.01
  Q 146.64 182.91 142.71 181.61
  Q 140.44 180.86 139.92 178.49
  Q 138.35 171.29 130.54 169.61
  C 126.40 168.72 121.17 170.75 118.78 174.48
  C 117.35 176.71 116.27 181.40 112.32 178.72
  C 109.76 176.98 106.70 175.31 103.54 175.88
  Q 96.63 177.13 94.29 183.00
  C 91.36 190.39 96.35 197.53 104.30 197.10
  C 107.68 196.92 109.69 194.38 111.44 191.85
  Q 111.73 191.43 112.24 191.36
  Q 117.68 190.63 119.57 195.01
  C 120.40 196.94 120.21 199.12 121.50 200.85
  Q 124.45 204.81 129.51 204.82
  C 130.88 204.82 132.10 203.74 133.17 202.99
  C 136.01 201.01 139.27 202.61 140.60 205.53
  Q 140.89 206.16 140.69 206.82
  C 140.12 208.65 138.88 210.00 138.67 211.95
  Q 138.32 215.08 140.31 217.55
  Q 143.90 221.98 149.59 220.82
  C 153.06 220.11 154.46 217.13 155.70 214.21
  A 1.90 1.90 0.0 0 1 157.42 213.05
  Q 160.52 212.98 163.43 213.70
  Q 164.51 213.97 165.03 214.94
  Q 169.41 223.15 178.11 220.47
  C 183.63 218.77 186.61 212.26 182.92 207.41
  C 181.13 205.05 181.98 202.14 184.52 200.79
  C 186.82 199.58 189.67 199.18 191.61 197.36
  C 196.41 192.86 197.03 185.40 192.87 180.33
  Q 189.42 176.13 183.15 175.19
  Q 182.60 175.10 182.51 174.55"
/>
<path stroke="#808e86" vector-effect="non-scaling-stroke" d="
  M 106.37 208.60
  L 99.59 208.64
  Q 99.20 208.64 99.19 209.04
  Q 99.11 244.63 99.10 279.74
  C 99.09 286.31 104.96 290.68 111.34 290.75
  Q 120.88 290.86 130.65 290.78"
/>
<path stroke="#7f715d" vector-effect="non-scaling-stroke" d="
  M 130.65 290.78
  Q 140.51 290.93 150.62 290.84
  Q 164.39 290.72 164.49 276.99
  Q 164.53 271.94 164.41 266.60"
/>
<path stroke="#79561d" vector-effect="non-scaling-stroke" d="
  M 164.41 266.60
  L 164.25 231.30
  Q 164.25 230.69 163.69 230.45
  Q 161.39 229.48 159.51 227.76
  Q 158.99 227.28 158.49 227.79
  C 154.98 231.37 150.89 232.71 145.97 232.92
  Q 145.10 232.95 145.72 233.57
  Q 147.58 235.42 147.75 238.08"
/>
<path stroke="#807232" vector-effect="non-scaling-stroke" d="
  M 147.75 238.08
  L 147.55 243.63
  A 1.36 1.32 -24.6 0 1 147.22 244.48
  C 145.83 246.12 142.95 246.39 141.49 244.69
  C 140.29 243.30 140.74 239.98 140.77 238.10"
/>
<path stroke="#79561d" vector-effect="non-scaling-stroke" d="
  M 140.77 238.10
  Q 140.40 233.58 143.94 233.19
  Q 145.46 233.02 143.94 232.85
  Q 132.03 231.53 127.34 220.26
  C 126.97 219.37 126.95 218.24 126.61 217.33
  Q 126.42 216.84 125.90 216.78
  Q 115.94 215.65 111.34 207.03
  A 0.62 0.62 0.0 0 0 110.44 206.81
  Q 108.41 208.25 106.37 208.60"
/>
<path stroke="#f8ac43" vector-effect="non-scaling-stroke" d="
  M 140.77 238.10
  Q 134.86 238.01 130.53 234.72
  C 128.45 233.14 125.68 230.88 124.32 228.39
  C 123.37 226.64 122.64 224.86 121.28 223.38
  Q 120.49 222.52 119.73 221.67
  Q 119.40 221.30 118.93 221.14
  C 112.81 219.01 110.82 216.06 106.76 212.23"
/>
<path stroke="#f8c796" vector-effect="non-scaling-stroke" d="
  M 106.76 212.23
  Q 106.88 210.11 106.37 208.60"
/>
<path stroke="#f8ac43" vector-effect="non-scaling-stroke" d="
  M 147.75 238.08
  Q 150.38 238.22 152.75 237.25
  A 0.55 0.54 76.9 0 1 153.50 237.72
  Q 154.29 249.42 154.05 261.64
  Q 153.85 271.94 144.93 277.67
  Q 144.23 278.12 144.69 278.70"
/>
<path stroke="#ffc783" vector-effect="non-scaling-stroke" d="
  M 144.69 278.70
  Q 143.67 278.76 143.47 278.57"
/>
<path stroke="#ffe4ac" vector-effect="non-scaling-stroke" d="
  M 106.76 212.23
  C 106.44 217.03 106.74 221.88 106.71 226.65
  Q 106.55 246.23 106.63 265.98
  C 106.64 270.25 107.82 274.39 111.39 276.83
  C 114.08 278.67 118.39 278.72 121.75 278.73
  Q 132.31 278.76 143.47 278.57"
/>
<path stroke="#ffe3d7" vector-effect="non-scaling-stroke" d="
  M 143.47 278.57
  Q 139.45 288.41 130.65 290.78"
/>
<path stroke="#f8ab6e" vector-effect="non-scaling-stroke" d="
  M 164.41 266.60
  Q 162.87 267.20 161.63 268.43
  Q 160.81 269.24 160.16 271.25
  C 158.02 277.87 151.16 279.78 144.69 278.70"
/>
<path stroke="#52362a" vector-effect="non-scaling-stroke" d="
  M 176.24 265.49
  L 176.11 277.93
  A 0.91 0.90 -86.1 0 0 176.90 278.84
  Q 180.88 279.32 184.87 278.61
  Q 191.28 277.48 194.30 271.64"
/>
<path stroke="#695438" vector-effect="non-scaling-stroke" d="
  M 194.30 271.64
  Q 198.23 264.22 196.71 255.99
  Q 194.70 245.03 185.22 241.32
  Q 181.14 239.72 176.77 240.35
  Q 176.13 240.44 176.13 241.09
  L 176.24 265.49"
/>
<path stroke="#bb6e56" vector-effect="non-scaling-stroke" d="
  M 194.30 271.64
  Q 192.73 268.64 191.00 266.99
  Q 189.50 265.57 186.62 265.44
  Q 181.46 265.21 176.24 265.49"
/>
<path stroke="#52362a" vector-effect="non-scaling-stroke" d="
  M 173.32 292.29
  Q 168.04 299.64 160.46 302.06
  Q 155.55 303.64 145.82 303.33
  Q 136.77 303.04 127.88 303.03
  A 0.46 0.46 0.0 0 0 127.45 303.64
  Q 128.91 307.63 131.77 311.38
  Q 147.23 331.64 174.60 333.46
  A 0.66 0.66 0.0 0 0 175.31 332.79
  Q 175.11 315.00 180.68 298.61
  Q 182.10 294.43 183.60 290.58
  A 0.62 0.62 0.0 0 0 183.00 289.74
  L 175.78 290.00
  Q 175.29 290.02 174.95 290.36
  Q 174.06 291.26 173.32 292.29"
/>
<path stroke="#1c1e12" vector-effect="non-scaling-stroke" d="
  M 183.50 426.72
  L 221.91 426.64"
/>
<path stroke="#695438" vector-effect="non-scaling-stroke" d="
  M 221.91 426.64
  L 230.24 426.43"
/>
<path stroke="#52362a" vector-effect="non-scaling-stroke" d="
  M 230.24 426.43
  L 236.41 426.49
  Q 236.94 426.50 236.98 425.97
  Q 237.62 417.19 235.30 408.36"
/>
<path stroke="#695438" vector-effect="non-scaling-stroke" d="
  M 235.30 408.36
  Q 232.61 394.22 221.79 384.20
  C 206.06 369.63 181.69 370.18 169.23 388.93
  C 161.82 400.07 161.64 414.16 168.08 425.71
  A 1.87 1.87 0.0 0 0 169.69 426.66
  L 183.50 426.72"
/>
<path stroke="#bb6e56" vector-effect="non-scaling-stroke" d="
  M 235.30 408.36
  Q 233.74 418.44 230.24 426.43"
/>
<path stroke="#85563e" vector-effect="non-scaling-stroke" d="
  M 221.91 426.64
  Q 223.50 420.20 220.43 414.58
  C 217.55 409.31 212.60 405.80 206.59 404.94
  Q 193.35 403.03 185.83 414.32
  Q 182.10 419.90 183.50 426.72"
/>
<path stroke="#1c1e12" vector-effect="non-scaling-stroke" d="
  M 301.39 426.64
  L 339.98 426.57"
/>
<path stroke="#695438" vector-effect="non-scaling-stroke" d="
  M 339.98 426.57
  L 354.06 426.66
  A 0.72 0.72 0.0 0 0 354.67 426.32
  Q 362.91 412.74 358.49 397.66
  Q 353.93 382.15 338.38 376.09
  C 325.38 371.03 310.99 375.94 301.71 385.73
  Q 285.71 402.62 288.11 426.19
  A 0.65 0.64 86.6 0 0 288.76 426.77
  L 301.39 426.64"
/>
<path stroke="#85563e" vector-effect="non-scaling-stroke" d="
  M 339.98 426.57
  Q 341.05 414.69 331.42 408.14
  Q 324.01 403.11 316.51 404.71
  Q 298.95 408.46 301.39 426.64"
/>
<path stroke="#695438" vector-effect="non-scaling-stroke" d="
  M 238.95 140.13
  C 243.84 135.50 248.01 145.41 251.57 141.21
  C 254.41 137.86 252.70 133.74 249.49 131.49
  Q 242.65 126.68 235.38 131.56
  C 232.03 133.81 229.79 140.27 235.23 141.68
  C 236.69 142.06 237.95 141.07 238.95 140.13"
/>
<path stroke="#695438" vector-effect="non-scaling-stroke" d="
  M 312.18 133.85
  C 307.16 128.20 297.00 128.80 293.44 135.80
  C 292.05 138.52 292.81 141.79 295.87 142.82
  A 3.10 3.10 0.0 0 0 299.03 142.08
  Q 302.86 138.26 307.32 142.04
  C 309.22 143.66 311.88 144.04 313.28 141.47
  Q 315.42 137.51 312.18 133.85"
/>
<path stroke="#695438" vector-effect="non-scaling-stroke" d="
  M 238.98 161.56
  C 239.10 158.86 241.53 156.53 244.14 158.17
  C 245.81 159.22 245.89 161.57 246.76 163.22
  C 248.21 165.95 252.06 164.79 252.74 162.20
  C 254.60 155.04 248.71 147.36 240.94 148.33
  C 234.72 149.11 229.85 156.52 232.16 162.62
  C 233.58 166.37 238.79 165.58 238.98 161.56"
/>
<path stroke="#695438" vector-effect="non-scaling-stroke" d="
  M 306.06 158.29
  A 2.67 2.66 -77.1 0 1 307.40 160.44
  Q 307.49 161.94 308.09 163.23
  C 309.66 166.61 313.99 165.23 314.66 161.90
  C 315.87 155.83 312.20 149.48 305.96 148.43
  C 293.61 146.35 289.42 165.83 297.88 164.73
  A 2.64 2.63 7.1 0 0 299.99 163.09
  C 300.62 161.48 300.79 159.25 302.31 158.26
  Q 304.04 157.13 306.06 158.29"
/>
<path stroke="#e9c6b2" vector-effect="non-scaling-stroke" d="
  M 253.87 169.11
  Q 244.68 174.12 238.36 182.60
  Q 228.61 195.69 227.64 211.65
  C 226.72 226.65 232.25 241.83 243.47 251.32
  C 255.47 261.47 272.09 264.27 286.44 257.38
  Q 293.61 253.94 297.22 250.36
  Q 315.10 232.57 311.92 206.87
  Q 308.76 181.38 285.41 168.25"
/>
<path stroke="#695438" vector-effect="non-scaling-stroke" d="
  M 285.41 168.25
  Q 284.46 161.13 277.51 160.59
  Q 271.64 160.13 264.03 160.52
  Q 259.20 160.76 257.18 162.04
  Q 253.72 164.21 253.87 169.11"
/>
<path stroke="#808e86" vector-effect="non-scaling-stroke" d="
  M 285.41 168.25
  C 285.54 177.47 283.19 184.49 273.10 185.35
  Q 272.64 185.39 272.59 185.86
  C 272.07 191.21 272.66 197.47 277.82 199.73
  Q 283.78 202.34 286.66 196.57
  Q 288.03 193.80 290.94 194.84
  Q 291.19 194.93 291.42 195.09
  Q 294.06 196.92 293.32 199.82
  C 292.55 202.83 290.75 203.83 288.30 205.29
  A 1.12 1.10 74.7 0 0 287.77 206.24
  Q 287.84 215.91 287.90 226.06
  Q 287.92 230.81 286.39 234.01
  C 282.05 243.07 272.29 248.54 262.85 244.99
  Q 250.09 240.19 250.07 225.69
  Q 250.06 216.63 250.19 206.70
  Q 250.20 205.82 249.44 205.36
  C 246.27 203.44 243.63 200.24 245.32 196.39
  C 246.11 194.60 248.10 194.39 249.76 194.77
  A 2.03 2.02 -6.9 0 1 251.13 195.84
  C 252.50 198.60 253.99 200.60 257.53 200.24
  C 265.39 199.46 266.12 192.47 265.36 185.95
  Q 265.30 185.45 264.80 185.38
  C 256.53 184.14 253.15 177.01 253.87 169.11"
/>
<path stroke="#e88e74" vector-effect="non-scaling-stroke" d="
  M 219.46 167.74
  Q 216.25 168.49 215.50 169.03
  Q 207.87 174.55 213.49 182.35
  C 215.58 185.26 218.05 186.07 221.63 185.60
  Q 223.57 185.34 225.59 183.65
  Q 232.67 177.71 226.30 170.10"
/>
<path stroke="#85563e" vector-effect="non-scaling-stroke" d="
  M 226.30 170.10
  Q 227.98 168.23 228.18 166.24
  C 228.83 159.86 217.87 158.77 219.46 167.74"
/>
<path stroke="#9b574d" vector-effect="non-scaling-stroke" d="
  M 226.30 170.10
  Q 221.70 171.63 219.46 167.74"
/>
<path stroke="#e88e74" vector-effect="non-scaling-stroke" d="
  M 319.23 170.00
  Q 312.84 174.27 316.67 181.43
  C 318.90 185.60 323.05 186.30 327.28 184.98
  C 332.60 183.32 334.35 177.97 332.08 172.93
  Q 330.17 168.68 325.28 167.70"
/>
<path stroke="#85563e" vector-effect="non-scaling-stroke" d="
  M 325.28 167.70
  C 327.83 160.98 318.16 158.95 317.25 165.48
  Q 316.81 168.62 319.23 170.00"
/>
<path stroke="#9b574d" vector-effect="non-scaling-stroke" d="
  M 325.28 167.70
  Q 322.96 171.65 319.23 170.00"
/>
<path stroke="#807232" vector-effect="non-scaling-stroke" d="
  M 125.8351 135.6486
  A 2.87 2.71 84.9 0 0 128.2793 132.5491
  A 2.87 2.71 84.9 0 0 125.3249 129.9314
  A 2.87 2.71 84.9 0 0 122.8807 133.0309
  A 2.87 2.71 84.9 0 0 125.8351 135.6486"
/>
<path stroke="#808e86" vector-effect="non-scaling-stroke" d="
  M 165.46 201.20
  A 5.62 5.62 0.0 0 0 159.84 195.58
  A 5.62 5.62 0.0 0 0 154.22 201.20
  A 5.62 5.62 0.0 0 0 159.84 206.82
  A 5.62 5.62 0.0 0 0 165.46 201.20"
/>
<path stroke="#7f5648" vector-effect="non-scaling-stroke" d="
  M 260.31 219.77
  Q 256.46 224.70 257.93 229.92
  C 259.33 234.88 264.02 238.32 268.95 238.18
  Q 278.13 237.91 280.45 228.70
  Q 281.11 226.11 280.65 216.88"
/>
<path stroke="#52362a" vector-effect="non-scaling-stroke" d="
  M 280.65 216.88
  L 280.67 211.25
  A 0.58 0.58 0.0 0 0 280.01 210.67
  Q 268.64 212.27 260.31 219.77"
/>
<path stroke="#d16f66" vector-effect="non-scaling-stroke" d="
  M 280.65 216.88
  C 276.27 217.19 272.14 220.09 268.68 222.51
  Q 267.80 223.13 266.82 222.69
  L 260.31 219.77"
/>
<path stroke="#807232" vector-effect="non-scaling-stroke" d="
  M 122.08 226.95
  A 3.68 3.68 0.0 0 0 118.40 223.27
  L 118.26 223.27
  A 3.68 3.68 0.0 0 0 114.58 226.95
  L 114.58 266.09
  A 3.68 3.68 0.0 0 0 118.26 269.77
  L 118.40 269.77
  A 3.68 3.68 0.0 0 0 122.08 266.09
  L 122.08 226.95"
/>
<path stroke="#807232" vector-effect="non-scaling-stroke" d="
  M 147.7721 258.0589
  A 3.34 3.34 0.0 0 0 144.3744 254.7777
  L 143.9744 254.7847
  A 3.34 3.34 0.0 0 0 140.6932 258.1825
  L 140.8479 267.0411
  A 3.34 3.34 0.0 0 0 144.2456 270.3223
  L 144.6456 270.3153
  A 3.34 3.34 0.0 0 0 147.9268 266.9175
  L 147.7721 258.0589"
/>
<path stroke="#85563e" vector-effect="non-scaling-stroke" d="
  M 215.76 391.89
  A 5.34 5.34 0.0 0 0 210.42 386.55
  A 5.34 5.34 0.0 0 0 205.08 391.89
  A 5.34 5.34 0.0 0 0 210.42 397.23
  A 5.34 5.34 0.0 0 0 215.76 391.89"
/>
<path stroke="#85563e" vector-effect="non-scaling-stroke" d="
  M 198.61 392.01
  A 5.30 5.30 0.0 0 0 193.31 386.71
  A 5.30 5.30 0.0 0 0 188.01 392.01
  A 5.30 5.30 0.0 0 0 193.31 397.31
  A 5.30 5.30 0.0 0 0 198.61 392.01"
/>
<path stroke="#85563e" vector-effect="non-scaling-stroke" d="
  M 183.71 403.03
  A 5.39 5.39 0.0 0 0 178.32 397.64
  A 5.39 5.39 0.0 0 0 172.93 403.03
  A 5.39 5.39 0.0 0 0 178.32 408.42
  A 5.39 5.39 0.0 0 0 183.71 403.03"
/>
<path stroke="#85563e" vector-effect="non-scaling-stroke" d="
  M 328.0493 397.4815
  A 5.50 5.16 94.7 0 0 333.6426 392.4228
  A 5.50 5.16 94.7 0 0 328.9507 386.5185
  A 5.50 5.16 94.7 0 0 323.3574 391.5772
  A 5.50 5.16 94.7 0 0 328.0493 397.4815"
/>
<path stroke="#85563e" vector-effect="non-scaling-stroke" d="
  M 312.2183 397.4063
  A 5.35 5.16 78.7 0 0 316.2300 391.1489
  A 5.35 5.16 78.7 0 0 310.1217 386.9137
  A 5.35 5.16 78.7 0 0 306.1100 393.1711
  A 5.35 5.16 78.7 0 0 312.2183 397.4063"
/>
<path stroke="#85563e" vector-effect="non-scaling-stroke" d="
  M 344.2761 408.5578
  A 5.59 5.18 88.4 0 0 349.2980 402.8254
  A 5.59 5.18 88.4 0 0 343.9639 397.3822
  A 5.59 5.18 88.4 0 0 338.9420 403.1146
  A 5.59 5.18 88.4 0 0 344.2761 408.5578"
/>
</g>
<path fill="#001c0c" d="
  M 368.86 426.76
  C 373.00 426.80 378.72 425.65 381.25 429.70
  Q 382.79 432.17 381.62 434.88
  C 380.55 437.37 378.39 438.57 375.80 438.57
  Q 258.76 438.57 147.18 438.51
  C 139.20 438.50 138.86 426.48 147.40 426.69
  Q 151.34 426.79 154.65 426.73
  A 0.36 0.35 81.2 0 0 154.98 426.27
  Q 153.65 421.82 152.63 417.30
  Q 151.45 412.08 151.49 407.83
  Q 151.69 387.27 167.02 373.27
  Q 172.48 368.29 179.32 365.23
  A 0.99 0.98 69.0 0 0 179.85 364.03
  C 178.35 359.41 177.06 354.79 176.39 350.07
  Q 176.10 348.05 175.65 346.10
  Q 175.53 345.60 175.02 345.58
  Q 163.28 345.08 152.59 341.26
  Q 125.46 331.59 114.39 303.86
  Q 114.16 303.29 113.55 303.30
  Q 109.59 303.37 105.93 302.52
  Q 94.55 299.89 89.00 289.15
  C 87.04 285.36 86.60 282.01 86.61 277.71
  Q 86.70 241.74 86.76 203.76
  C 86.76 201.29 85.29 200.49 84.22 198.59
  Q 78.47 188.34 83.45 177.62
  Q 88.02 167.80 97.78 164.49
  Q 104.05 162.36 111.62 164.61
  Q 112.10 164.75 112.41 164.36
  Q 114.48 161.73 116.99 160.31
  Q 128.79 153.62 141.41 160.44
  A 1.32 1.32 0.0 0 0 143.32 159.59
  C 143.84 157.44 147.56 154.28 149.33 152.97
  Q 152.50 150.61 155.90 149.30
  Q 170.59 143.66 185.05 153.87
  A 0.67 0.66 -57.0 0 0 186.00 153.66
  L 189.31 148.03
  Q 189.69 147.39 189.15 146.87
  Q 184.26 142.17 181.25 137.16
  Q 174.61 126.08 177.13 113.18
  Q 179.45 101.39 188.06 93.29
  Q 193.01 88.63 198.29 86.10
  Q 209.55 80.71 220.70 83.51
  Q 234.97 87.10 242.09 99.86
  A 1.02 1.01 -28.4 0 0 243.44 100.26
  Q 247.37 98.23 251.52 97.06
  Q 267.58 92.51 284.21 93.53
  Q 285.59 93.62 289.25 94.12
  C 291.52 94.43 293.74 94.48 296.02 94.95
  C 303.77 96.55 311.03 98.32 317.42 101.58
  Q 317.98 101.87 318.27 101.30
  Q 324.39 89.01 337.40 84.24
  Q 343.68 81.94 349.97 82.60
  Q 366.01 84.27 376.02 96.51
  Q 386.87 109.78 384.18 126.69
  C 382.90 134.73 377.90 142.36 371.56 147.16
  A 1.35 1.34 57.0 0 0 371.20 148.88
  Q 378.98 163.00 382.12 181.59
  Q 387.11 211.18 376.83 239.84
  Q 376.16 241.70 375.32 243.45
  Q 374.47 245.22 374.05 247.14
  A 0.83 0.83 0.0 0 0 374.39 247.99
  Q 385.25 255.48 394.66 266.78
  Q 406.24 280.70 411.33 298.23
  Q 413.21 304.72 413.97 312.31
  Q 416.12 333.96 405.86 352.53
  Q 404.56 354.88 402.31 357.70
  C 400.55 359.90 398.88 362.17 396.91 364.18
  Q 389.03 372.24 377.90 377.07
  Q 371.57 379.81 365.06 381.40
  A 0.70 0.70 0.0 0 0 364.63 382.45
  Q 376.59 401.84 369.38 423.85
  C 369.12 424.64 368.50 425.30 368.31 426.05
  Q 368.14 426.75 368.86 426.76
  Z
  M 189.07 114.92
  Q 186.79 127.14 195.58 136.08
  Q 199.95 139.54 205.91 142.19
  Q 197.63 152.90 193.31 164.58
  Q 193.13 165.05 193.57 165.30
  L 197.27 167.41
  Q 204.86 173.27 207.06 180.97
  Q 211.87 197.83 197.37 209.10
  A 1.53 1.50 81.4 0 0 196.87 209.79
  Q 196.63 210.48 196.74 211.30
  C 197.65 217.75 194.12 224.19 189.05 228.22
  A 0.79 0.79 0.0 0 0 189.29 229.58
  C 198.00 232.50 204.70 239.62 207.71 248.18
  Q 213.41 264.34 204.18 279.23
  Q 203.28 280.69 200.65 283.17
  Q 197.17 286.44 197.25 289.93
  Q 188.35 308.32 187.58 328.50
  C 187.13 340.32 187.96 350.75 191.84 361.46
  Q 192.02 361.96 192.55 361.91
  L 196.79 361.47
  Q 212.53 361.69 226.40 371.53
  Q 231.64 375.79 236.14 381.44
  L 244.29 395.03
  Q 246.10 400.72 247.46 405.85
  Q 248.40 409.41 248.84 412.85
  A 1.47 1.46 -86.5 0 0 249.92 414.08
  Q 262.24 417.31 274.80 414.69
  A 1.37 1.36 86.3 0 0 275.88 413.46
  Q 276.57 404.18 280.53 395.12
  Q 288.46 378.92 303.71 368.44
  A 0.64 0.64 0.0 0 0 303.76 367.43
  Q 298.87 363.27 295.59 357.52
  Q 291.35 350.18 290.76 344.25
  Q 289.34 330.05 299.18 318.19
  Q 301.68 315.18 306.94 311.57
  Q 315.75 306.39 326.85 305.13
  L 333.07 304.84
  Q 333.58 304.82 333.38 304.35
  L 330.23 297.06
  Q 328.27 292.95 328.09 291.63
  C 327.31 286.01 335.00 283.17 337.54 288.53
  Q 341.19 296.24 344.91 304.20
  A 1.59 1.57 -19.6 0 0 346.74 305.06
  Q 352.17 303.64 356.70 301.34
  C 359.67 299.84 364.05 299.70 365.87 302.85
  Q 368.06 306.67 364.81 309.79
  C 357.57 314.16 351.57 316.66 344.75 317.28
  Q 341.44 317.58 329.00 317.46
  Q 321.74 317.38 313.85 321.94
  Q 306.78 326.71 304.36 334.37
  C 300.84 345.45 307.99 357.02 318.51 361.62
  Q 320.21 362.37 322.16 362.13
  Q 338.46 360.11 353.06 369.97
  C 354.26 370.78 355.31 370.61 356.73 370.46
  Q 381.23 368.00 394.48 347.77
  Q 399.90 339.50 400.82 329.30
  Q 404.52 307.90 395.20 289.50
  Q 388.29 275.87 377.37 265.12
  Q 372.20 260.03 366.99 255.40
  Q 367.56 250.53 370.81 249.09
  Q 372.47 248.35 370.75 247.77
  Q 366.17 246.22 362.77 242.98
  Q 368.78 229.48 370.55 213.24
  Q 373.18 189.14 366.40 168.24
  C 363.61 159.65 359.74 152.72 355.13 145.53
  Q 353.68 143.27 356.01 142.18
  C 358.91 140.83 361.93 139.76 364.40 137.66
  Q 375.21 128.48 372.19 113.88
  Q 366.92 98.99 352.90 95.36
  Q 342.47 92.67 333.66 99.78
  Q 325.62 107.03 327.99 117.73
  Q 328.35 119.37 327.06 120.36
  C 325.57 121.49 324.07 120.59 322.88 119.56
  Q 320.85 117.79 318.55 116.79
  Q 316.64 116.18 315.68 114.44
  Q 315.44 114.01 315.01 113.77
  Q 310.51 111.31 309.00 110.77
  Q 270.56 96.99 234.56 116.24
  Q 234.04 113.52 233.62 111.27
  Q 232.27 104.11 227.25 99.82
  Q 217.86 92.25 206.74 95.67
  Q 192.50 100.05 189.07 114.92
  Z
  M 182.51 174.55
  C 182.23 172.71 182.17 170.98 181.40 169.24
  C 177.90 161.41 168.67 157.31 160.57 160.73
  C 154.19 163.42 149.37 169.93 151.51 176.92
  C 152.02 178.61 151.30 180.14 149.85 181.01
  Q 146.64 182.91 142.71 181.61
  Q 140.44 180.86 139.92 178.49
  Q 138.35 171.29 130.54 169.61
  C 126.40 168.72 121.17 170.75 118.78 174.48
  C 117.35 176.71 116.27 181.40 112.32 178.72
  C 109.76 176.98 106.70 175.31 103.54 175.88
  Q 96.63 177.13 94.29 183.00
  C 91.36 190.39 96.35 197.53 104.30 197.10
  C 107.68 196.92 109.69 194.38 111.44 191.85
  Q 111.73 191.43 112.24 191.36
  Q 117.68 190.63 119.57 195.01
  C 120.40 196.94 120.21 199.12 121.50 200.85
  Q 124.45 204.81 129.51 204.82
  C 130.88 204.82 132.10 203.74 133.17 202.99
  C 136.01 201.01 139.27 202.61 140.60 205.53
  Q 140.89 206.16 140.69 206.82
  C 140.12 208.65 138.88 210.00 138.67 211.95
  Q 138.32 215.08 140.31 217.55
  Q 143.90 221.98 149.59 220.82
  C 153.06 220.11 154.46 217.13 155.70 214.21
  A 1.90 1.90 0.0 0 1 157.42 213.05
  Q 160.52 212.98 163.43 213.70
  Q 164.51 213.97 165.03 214.94
  Q 169.41 223.15 178.11 220.47
  C 183.63 218.77 186.61 212.26 182.92 207.41
  C 181.13 205.05 181.98 202.14 184.52 200.79
  C 186.82 199.58 189.67 199.18 191.61 197.36
  C 196.41 192.86 197.03 185.40 192.87 180.33
  Q 189.42 176.13 183.15 175.19
  Q 182.60 175.10 182.51 174.55
  Z
  M 106.37 208.60
  L 99.59 208.64
  Q 99.20 208.64 99.19 209.04
  Q 99.11 244.63 99.10 279.74
  C 99.09 286.31 104.96 290.68 111.34 290.75
  Q 120.88 290.86 130.65 290.78
  Q 140.51 290.93 150.62 290.84
  Q 164.39 290.72 164.49 276.99
  Q 164.53 271.94 164.41 266.60
  L 164.25 231.30
  Q 164.25 230.69 163.69 230.45
  Q 161.39 229.48 159.51 227.76
  Q 158.99 227.28 158.49 227.79
  C 154.98 231.37 150.89 232.71 145.97 232.92
  Q 145.10 232.95 145.72 233.57
  Q 147.58 235.42 147.75 238.08
  L 147.55 243.63
  A 1.36 1.32 -24.6 0 1 147.22 244.48
  C 145.83 246.12 142.95 246.39 141.49 244.69
  C 140.29 243.30 140.74 239.98 140.77 238.10
  Q 140.40 233.58 143.94 233.19
  Q 145.46 233.02 143.94 232.85
  Q 132.03 231.53 127.34 220.26
  C 126.97 219.37 126.95 218.24 126.61 217.33
  Q 126.42 216.84 125.90 216.78
  Q 115.94 215.65 111.34 207.03
  A 0.62 0.62 0.0 0 0 110.44 206.81
  Q 108.41 208.25 106.37 208.60
  Z
  M 176.24 265.49
  L 176.11 277.93
  A 0.91 0.90 -86.1 0 0 176.90 278.84
  Q 180.88 279.32 184.87 278.61
  Q 191.28 277.48 194.30 271.64
  Q 198.23 264.22 196.71 255.99
  Q 194.70 245.03 185.22 241.32
  Q 181.14 239.72 176.77 240.35
  Q 176.13 240.44 176.13 241.09
  L 176.24 265.49
  Z
  M 173.32 292.29
  Q 168.04 299.64 160.46 302.06
  Q 155.55 303.64 145.82 303.33
  Q 136.77 303.04 127.88 303.03
  A 0.46 0.46 0.0 0 0 127.45 303.64
  Q 128.91 307.63 131.77 311.38
  Q 147.23 331.64 174.60 333.46
  A 0.66 0.66 0.0 0 0 175.31 332.79
  Q 175.11 315.00 180.68 298.61
  Q 182.10 294.43 183.60 290.58
  A 0.62 0.62 0.0 0 0 183.00 289.74
  L 175.78 290.00
  Q 175.29 290.02 174.95 290.36
  Q 174.06 291.26 173.32 292.29
  Z
  M 183.50 426.72
  L 221.91 426.64
  L 230.24 426.43
  L 236.41 426.49
  Q 236.94 426.50 236.98 425.97
  Q 237.62 417.19 235.30 408.36
  Q 232.61 394.22 221.79 384.20
  C 206.06 369.63 181.69 370.18 169.23 388.93
  C 161.82 400.07 161.64 414.16 168.08 425.71
  A 1.87 1.87 0.0 0 0 169.69 426.66
  L 183.50 426.72
  Z
  M 301.39 426.64
  L 339.98 426.57
  L 354.06 426.66
  A 0.72 0.72 0.0 0 0 354.67 426.32
  Q 362.91 412.74 358.49 397.66
  Q 353.93 382.15 338.38 376.09
  C 325.38 371.03 310.99 375.94 301.71 385.73
  Q 285.71 402.62 288.11 426.19
  A 0.65 0.64 86.6 0 0 288.76 426.77
  L 301.39 426.64
  Z"
/>
<path fill="#ffffff" d="
  M 227.25 99.82
  Q 222.39 98.10 220.26 98.07
  C 210.75 97.93 200.28 102.86 196.41 111.77
  Q 195.38 114.15 194.44 116.60
  Q 193.82 118.23 192.24 117.47
  Q 190.48 116.63 189.07 114.92
  Q 192.50 100.05 206.74 95.67
  Q 217.86 92.25 227.25 99.82
  Z"
/>
<path fill="#ffffff" d="
  M 372.19 113.88
  Q 371.58 116.56 367.36 118.53
  Q 364.46 109.59 359.00 104.74
  Q 350.38 97.09 338.67 98.44
  Q 337.75 98.55 336.22 99.17
  Q 334.90 99.71 333.66 99.78
  Q 342.47 92.67 352.90 95.36
  Q 366.92 98.99 372.19 113.88
  Z"
/>
<path fill="#001c0c" d="
  M 153.17 105.73
  C 154.24 106.43 155.48 107.19 156.78 107.31
  Q 158.59 107.47 159.94 108.72
  A 1.10 1.08 -70.9 0 1 160.28 109.44
  C 160.43 111.45 158.99 113.29 156.96 113.48
  Q 154.73 113.70 152.82 115.64
  Q 152.43 116.04 152.36 116.58
  C 152.10 118.59 151.85 122.69 149.01 122.87
  A 2.53 2.53 0.0 0 1 146.41 121.01
  Q 145.79 118.75 145.44 116.59
  C 144.99 113.84 141.17 113.31 139.03 112.72
  A 2.52 2.50 89.3 0 1 137.31 111.03
  C 136.77 109.24 137.74 107.51 139.62 107.31
  C 145.05 106.73 145.52 104.07 146.27 99.41
  A 2.69 2.67 -0.8 0 1 148.42 97.21
  C 150.15 96.89 151.55 98.12 151.69 99.80
  Q 151.93 102.54 152.64 105.01
  A 1.34 1.28 10.0 0 0 153.17 105.73
  Z"
/>
<path fill="#d28c64" d="
  M 227.25 99.82
  Q 232.27 104.11 233.62 111.27
  Q 234.04 113.52 234.56 116.24
  L 226.32 121.62
  Q 226.46 113.39 220.57 110.22
  Q 216.70 108.14 212.06 108.89
  C 202.28 110.46 196.82 123.86 204.60 131.04
  Q 199.67 132.22 195.58 136.08
  Q 186.79 127.14 189.07 114.92
  Q 190.48 116.63 192.24 117.47
  Q 193.82 118.23 194.44 116.60
  Q 195.38 114.15 196.41 111.77
  C 200.28 102.86 210.75 97.93 220.26 98.07
  Q 222.39 98.10 227.25 99.82
  Z"
/>
<path fill="#d28c64" d="
  M 367.36 118.53
  Q 365.68 130.68 352.51 133.88
  Q 352.38 133.91 352.22 133.33
  C 364.05 127.10 360.03 110.28 347.21 108.78
  Q 341.15 108.07 337.11 112.40
  Q 333.15 116.65 334.42 121.56
  Q 335.52 125.81 339.34 124.43
  Q 340.11 125.71 342.34 126.10
  Q 343.94 126.37 345.52 126.93
  Q 347.17 127.52 349.06 127.59
  Q 347.29 128.91 346.94 130.37
  Q 346.82 130.87 347.09 131.30
  Q 348.17 133.04 350.27 133.82
  Q 351.76 136.85 354.20 138.73
  A 2.43 2.42 45.5 0 1 354.17 142.60
  Q 353.48 143.11 352.59 143.31
  Q 352.12 143.41 352.12 143.89
  Q 352.12 144.03 352.03 144.15
  Q 351.77 144.51 351.31 144.64
  Q 349.68 145.09 348.25 146.07
  Q 347.70 146.45 347.09 146.74
  C 345.75 147.36 345.86 148.93 346.63 149.95
  Q 347.94 151.66 348.74 153.58
  Q 351.46 160.13 353.87 166.82
  C 360.49 185.21 359.92 205.32 355.79 224.07
  Q 354.43 230.22 352.03 236.00
  A 2.25 2.24 22.8 0 0 353.23 238.92
  L 362.77 242.98
  Q 366.17 246.22 370.75 247.77
  Q 372.47 248.35 370.81 249.09
  Q 367.56 250.53 366.99 255.40
  Q 363.60 251.94 361.41 253.93
  C 360.22 255.03 360.19 256.84 361.40 257.90
  C 371.98 267.11 380.96 276.03 387.51 288.32
  Q 392.01 296.76 393.60 303.99
  Q 394.29 307.15 394.65 308.21
  Q 391.39 309.67 391.34 313.77
  Q 391.21 324.96 386.43 333.40
  Q 379.49 345.67 367.23 352.03
  C 356.13 357.80 339.16 359.70 327.48 352.86
  Q 321.19 349.18 319.64 342.48
  C 318.74 338.60 319.61 332.81 318.82 328.49
  Q 318.43 326.31 316.49 322.45
  Q 327.43 322.41 338.87 322.41
  Q 346.72 322.41 353.42 320.16
  Q 361.21 317.55 364.81 309.79
  Q 368.06 306.67 365.87 302.85
  C 364.05 299.70 359.67 299.84 356.70 301.34
  Q 352.17 303.64 346.74 305.06
  A 1.59 1.57 -19.6 0 1 344.91 304.20
  Q 341.19 296.24 337.54 288.53
  C 335.00 283.17 327.31 286.01 328.09 291.63
  Q 328.27 292.95 330.23 297.06
  Q 322.33 298.37 326.85 305.13
  Q 315.75 306.39 306.94 311.57
  Q 292.86 292.04 268.74 291.10
  Q 261.40 290.82 254.83 292.83
  C 236.57 298.41 223.44 312.28 218.82 330.56
  Q 213.51 351.55 226.40 371.53
  Q 212.53 361.69 196.79 361.47
  Q 193.67 352.17 192.92 342.51
  Q 190.94 316.82 201.08 293.11
  A 2.40 2.40 0.0 0 0 200.37 290.29
  Q 199.58 289.66 197.25 289.93
  Q 197.17 286.44 200.65 283.17
  Q 203.28 280.69 204.18 279.23
  Q 213.41 264.34 207.71 248.18
  C 204.70 239.62 198.00 232.50 189.29 229.58
  A 0.79 0.79 0.0 0 1 189.05 228.22
  C 194.12 224.19 197.65 217.75 196.74 211.30
  Q 196.63 210.48 196.87 209.79
  A 1.53 1.50 81.4 0 1 197.37 209.10
  Q 211.87 197.83 207.06 180.97
  Q 204.86 173.27 197.27 167.41
  Q 200.46 159.22 202.09 156.35
  Q 220.06 124.76 253.58 113.98
  Q 263.59 110.76 272.76 110.30
  Q 295.86 109.13 316.87 120.83
  A 1.03 1.02 27.4 0 0 318.30 120.38
  Q 319.10 118.73 318.55 116.79
  Q 320.85 117.79 322.88 119.56
  C 324.07 120.59 325.57 121.49 327.06 120.36
  Q 328.35 119.37 327.99 117.73
  Q 325.62 107.03 333.66 99.78
  Q 334.90 99.71 336.22 99.17
  Q 337.75 98.55 338.67 98.44
  Q 350.38 97.09 359.00 104.74
  Q 364.46 109.59 367.36 118.53
  Z
  M 238.95 140.13
  C 243.84 135.50 248.01 145.41 251.57 141.21
  C 254.41 137.86 252.70 133.74 249.49 131.49
  Q 242.65 126.68 235.38 131.56
  C 232.03 133.81 229.79 140.27 235.23 141.68
  C 236.69 142.06 237.95 141.07 238.95 140.13
  Z
  M 312.18 133.85
  C 307.16 128.20 297.00 128.80 293.44 135.80
  C 292.05 138.52 292.81 141.79 295.87 142.82
  A 3.10 3.10 0.0 0 0 299.03 142.08
  Q 302.86 138.26 307.32 142.04
  C 309.22 143.66 311.88 144.04 313.28 141.47
  Q 315.42 137.51 312.18 133.85
  Z
  M 238.98 161.56
  C 239.10 158.86 241.53 156.53 244.14 158.17
  C 245.81 159.22 245.89 161.57 246.76 163.22
  C 248.21 165.95 252.06 164.79 252.74 162.20
  C 254.60 155.04 248.71 147.36 240.94 148.33
  C 234.72 149.11 229.85 156.52 232.16 162.62
  C 233.58 166.37 238.79 165.58 238.98 161.56
  Z
  M 306.06 158.29
  A 2.67 2.66 -77.1 0 1 307.40 160.44
  Q 307.49 161.94 308.09 163.23
  C 309.66 166.61 313.99 165.23 314.66 161.90
  C 315.87 155.83 312.20 149.48 305.96 148.43
  C 293.61 146.35 289.42 165.83 297.88 164.73
  A 2.64 2.63 7.1 0 0 299.99 163.09
  C 300.62 161.48 300.79 159.25 302.31 158.26
  Q 304.04 157.13 306.06 158.29
  Z
  M 253.87 169.11
  Q 244.68 174.12 238.36 182.60
  Q 228.61 195.69 227.64 211.65
  C 226.72 226.65 232.25 241.83 243.47 251.32
  C 255.47 261.47 272.09 264.27 286.44 257.38
  Q 293.61 253.94 297.22 250.36
  Q 315.10 232.57 311.92 206.87
  Q 308.76 181.38 285.41 168.25
  Q 284.46 161.13 277.51 160.59
  Q 271.64 160.13 264.03 160.52
  Q 259.20 160.76 257.18 162.04
  Q 253.72 164.21 253.87 169.11
  Z
  M 219.46 167.74
  Q 216.25 168.49 215.50 169.03
  Q 207.87 174.55 213.49 182.35
  C 215.58 185.26 218.05 186.07 221.63 185.60
  Q 223.57 185.34 225.59 183.65
  Q 232.67 177.71 226.30 170.10
  Q 227.98 168.23 228.18 166.24
  C 228.83 159.86 217.87 158.77 219.46 167.74
  Z
  M 319.23 170.00
  Q 312.84 174.27 316.67 181.43
  C 318.90 185.60 323.05 186.30 327.28 184.98
  C 332.60 183.32 334.35 177.97 332.08 172.93
  Q 330.17 168.68 325.28 167.70
  C 327.83 160.98 318.16 158.95 317.25 165.48
  Q 316.81 168.62 319.23 170.00
  Z"
/>
<path fill="#ffffff" d="
  M 318.55 116.79
  Q 319.10 118.73 318.30 120.38
  A 1.03 1.02 27.4 0 1 316.87 120.83
  Q 295.86 109.13 272.76 110.30
  Q 263.59 110.76 253.58 113.98
  Q 220.06 124.76 202.09 156.35
  Q 200.46 159.22 197.27 167.41
  L 193.57 165.30
  Q 193.13 165.05 193.31 164.58
  Q 197.63 152.90 205.91 142.19
  L 212.89 134.12
  L 222.81 124.53
  L 226.32 121.62
  L 234.56 116.24
  Q 270.56 96.99 309.00 110.77
  Q 310.51 111.31 315.01 113.77
  Q 315.44 114.01 315.68 114.44
  Q 316.64 116.18 318.55 116.79
  Z"
/>
<path fill="#001c0c" d="
  M 226.32 121.62
  L 222.81 124.53
  Q 220.38 124.88 220.21 123.26
  C 219.82 119.44 219.37 115.86 214.67 115.63
  C 208.59 115.34 205.17 123.08 210.56 127.20
  C 211.73 128.10 213.98 129.19 213.75 130.88
  Q 209.91 135.66 204.60 131.04
  C 196.82 123.86 202.28 110.46 212.06 108.89
  Q 216.70 108.14 220.57 110.22
  Q 226.46 113.39 226.32 121.62
  Z"
/>
<path fill="#001c0c" d="
  M 352.22 133.33
  L 350.27 133.82
  Q 348.17 133.04 347.09 131.30
  Q 346.82 130.87 346.94 130.37
  Q 347.29 128.91 349.06 127.59
  Q 351.79 125.65 352.03 122.54
  C 352.50 116.22 343.52 112.86 341.07 118.86
  C 340.40 120.48 340.91 122.57 339.34 124.43
  Q 335.52 125.81 334.42 121.56
  Q 333.15 116.65 337.11 112.40
  Q 341.15 108.07 347.21 108.78
  C 360.03 110.28 364.05 127.10 352.22 133.33
  Z"
/>
<path fill="#a34f48" d="
  M 372.19 113.88
  Q 375.21 128.48 364.40 137.66
  C 361.93 139.76 358.91 140.83 356.01 142.18
  Q 353.68 143.27 355.13 145.53
  C 359.74 152.72 363.61 159.65 366.40 168.24
  Q 373.18 189.14 370.55 213.24
  Q 368.78 229.48 362.77 242.98
  L 353.23 238.92
  A 2.25 2.24 22.8 0 1 352.03 236.00
  Q 354.43 230.22 355.79 224.07
  C 359.92 205.32 360.49 185.21 353.87 166.82
  Q 351.46 160.13 348.74 153.58
  Q 347.94 151.66 346.63 149.95
  C 345.86 148.93 345.75 147.36 347.09 146.74
  Q 347.70 146.45 348.25 146.07
  Q 349.68 145.09 351.31 144.64
  Q 351.77 144.51 352.03 144.15
  Q 352.12 144.03 352.12 143.89
  Q 352.12 143.41 352.59 143.31
  Q 353.48 143.11 354.17 142.60
  A 2.43 2.42 45.5 0 0 354.20 138.73
  Q 351.76 136.85 350.27 133.82
  L 352.22 133.33
  Q 352.38 133.91 352.51 133.88
  Q 365.68 130.68 367.36 118.53
  Q 371.58 116.56 372.19 113.88
  Z"
/>
<path fill="#fe8f83" d="
  M 222.81 124.53
  L 212.89 134.12
  Q 212.86 133.34 213.44 132.59
  Q 213.80 132.12 213.85 131.80
  Q 213.92 131.30 213.75 130.88
  C 213.98 129.19 211.73 128.10 210.56 127.20
  C 205.17 123.08 208.59 115.34 214.67 115.63
  C 219.37 115.86 219.82 119.44 220.21 123.26
  Q 220.38 124.88 222.81 124.53
  Z"
/>
<path fill="#fe8f83" d="
  M 349.06 127.59
  Q 347.17 127.52 345.52 126.93
  Q 343.94 126.37 342.34 126.10
  Q 340.11 125.71 339.34 124.43
  C 340.91 122.57 340.40 120.48 341.07 118.86
  C 343.52 112.86 352.50 116.22 352.03 122.54
  Q 351.79 125.65 349.06 127.59
  Z"
/>
<path fill="#001c0c" d="
  M 126.1685 143.1959
  A 10.29 10.03 87.0 0 1 115.6137 133.4449
  A 10.29 10.03 87.0 0 1 125.0915 122.6441
  A 10.29 10.03 87.0 0 1 135.6463 132.3951
  A 10.29 10.03 87.0 0 1 126.1685 143.1959
  Z
  M 125.8351 135.6486
  A 2.87 2.71 84.9 0 0 128.2793 132.5491
  A 2.87 2.71 84.9 0 0 125.3249 129.9314
  A 2.87 2.71 84.9 0 0 122.8807 133.0309
  A 2.87 2.71 84.9 0 0 125.8351 135.6486
  Z"
/>
<path fill="#001c0c" d="
  M 251.57 141.21
  C 248.01 145.41 243.84 135.50 238.95 140.13
  C 237.95 141.07 236.69 142.06 235.23 141.68
  C 229.79 140.27 232.03 133.81 235.38 131.56
  Q 242.65 126.68 249.49 131.49
  C 252.70 133.74 254.41 137.86 251.57 141.21
  Z"
/>
<ellipse fill="#ffc858" cx="0.00" cy="0.00" transform="translate(125.58,132.79) rotate(84.9)" rx="2.87" ry="2.71"/>
<path fill="#001c0c" d="
  M 293.44 135.80
  C 297.00 128.80 307.16 128.20 312.18 133.85
  Q 315.42 137.51 313.28 141.47
  C 311.88 144.04 309.22 143.66 307.32 142.04
  Q 302.86 138.26 299.03 142.08
  A 3.10 3.10 0.0 0 1 295.87 142.82
  C 292.81 141.79 292.05 138.52 293.44 135.80
  Z"
/>
<path fill="#a34f48" d="
  M 213.75 130.88
  Q 213.92 131.30 213.85 131.80
  Q 213.80 132.12 213.44 132.59
  Q 212.86 133.34 212.89 134.12
  L 205.91 142.19
  Q 199.95 139.54 195.58 136.08
  Q 199.67 132.22 204.60 131.04
  Q 209.91 135.66 213.75 130.88
  Z"
/>
<path fill="#001c0c" d="
  M 404.84 167.63
  Q 401.92 165.81 398.87 165.34
  A 2.98 2.98 0.0 0 1 396.35 162.62
  C 396.03 158.36 404.58 159.79 405.54 154.70
  C 405.80 153.31 406.23 152.21 406.29 150.75
  Q 406.35 149.49 407.32 148.41
  C 409.26 146.29 412.50 148.33 412.56 150.82
  Q 412.64 153.78 413.94 156.59
  A 1.07 1.06 1.0 0 0 414.46 157.12
  Q 415.05 157.40 415.56 157.79
  Q 415.95 158.09 416.42 158.19
  C 418.21 158.59 421.54 159.57 422.11 161.50
  C 423.17 165.08 417.71 166.02 415.46 166.43
  Q 414.96 166.52 414.62 166.90
  L 413.03 168.66
  Q 412.72 168.99 412.68 169.44
  Q 412.54 171.04 412.45 172.65
  C 412.40 173.55 411.93 174.21 411.44 174.96
  Q 411.16 175.39 410.68 175.59
  C 406.22 177.38 405.65 171.76 405.58 168.94
  A 1.60 1.57 -74.9 0 0 404.84 167.63
  Z"
/>
<path fill="#001c0c" d="
  M 244.14 158.17
  C 241.53 156.53 239.10 158.86 238.98 161.56
  C 238.79 165.58 233.58 166.37 232.16 162.62
  C 229.85 156.52 234.72 149.11 240.94 148.33
  C 248.71 147.36 254.60 155.04 252.74 162.20
  C 252.06 164.79 248.21 165.95 246.76 163.22
  C 245.89 161.57 245.81 159.22 244.14 158.17
  Z"
/>
<path fill="#001c0c" d="
  M 306.06 158.29
  Q 304.04 157.13 302.31 158.26
  C 300.79 159.25 300.62 161.48 299.99 163.09
  A 2.64 2.63 7.1 0 1 297.88 164.73
  C 289.42 165.83 293.61 146.35 305.96 148.43
  C 312.20 149.48 315.87 155.83 314.66 161.90
  C 313.99 165.23 309.66 166.61 308.09 163.23
  Q 307.49 161.94 307.40 160.44
  A 2.67 2.66 -77.1 0 0 306.06 158.29
  Z"
/>
<path fill="#ffffff" d="
  M 183.15 175.19
  Q 189.42 176.13 192.87 180.33
  C 197.03 185.40 196.41 192.86 191.61 197.36
  C 189.67 199.18 186.82 199.58 184.52 200.79
  C 181.98 202.14 181.13 205.05 182.92 207.41
  C 186.61 212.26 183.63 218.77 178.11 220.47
  Q 169.41 223.15 165.03 214.94
  Q 164.51 213.97 163.43 213.70
  Q 160.52 212.98 157.42 213.05
  A 1.90 1.90 0.0 0 0 155.70 214.21
  C 154.46 217.13 153.06 220.11 149.59 220.82
  Q 143.90 221.98 140.31 217.55
  Q 138.32 215.08 138.67 211.95
  C 138.88 210.00 140.12 208.65 140.69 206.82
  Q 140.89 206.16 140.60 205.53
  C 139.27 202.61 136.01 201.01 133.17 202.99
  C 132.10 203.74 130.88 204.82 129.51 204.82
  Q 124.45 204.81 121.50 200.85
  C 120.21 199.12 120.40 196.94 119.57 195.01
  Q 117.68 190.63 112.24 191.36
  Q 111.73 191.43 111.44 191.85
  C 109.69 194.38 107.68 196.92 104.30 197.10
  C 96.35 197.53 91.36 190.39 94.29 183.00
  Q 96.63 177.13 103.54 175.88
  C 106.70 175.31 109.76 176.98 112.32 178.72
  C 116.27 181.40 117.35 176.71 118.78 174.48
  C 121.17 170.75 126.40 168.72 130.54 169.61
  Q 138.35 171.29 139.92 178.49
  Q 140.44 180.86 142.71 181.61
  Q 146.64 182.91 149.85 181.01
  C 151.30 180.14 152.02 178.61 151.51 176.92
  C 149.37 169.93 154.19 163.42 160.57 160.73
  C 168.67 157.31 177.90 161.41 181.40 169.24
  C 182.17 170.98 182.23 172.71 182.51 174.55
  Q 182.60 175.10 183.15 175.19
  Z
  M 165.46 201.20
  A 5.62 5.62 0.0 0 0 159.84 195.58
  A 5.62 5.62 0.0 0 0 154.22 201.20
  A 5.62 5.62 0.0 0 0 159.84 206.82
  A 5.62 5.62 0.0 0 0 165.46 201.20
  Z"
/>
<path fill="#001c0c" d="
  M 285.41 168.25
  C 285.54 177.47 283.19 184.49 273.10 185.35
  Q 272.64 185.39 272.59 185.86
  C 272.07 191.21 272.66 197.47 277.82 199.73
  Q 283.78 202.34 286.66 196.57
  Q 288.03 193.80 290.94 194.84
  Q 291.19 194.93 291.42 195.09
  Q 294.06 196.92 293.32 199.82
  C 292.55 202.83 290.75 203.83 288.30 205.29
  A 1.12 1.10 74.7 0 0 287.77 206.24
  Q 287.84 215.91 287.90 226.06
  Q 287.92 230.81 286.39 234.01
  C 282.05 243.07 272.29 248.54 262.85 244.99
  Q 250.09 240.19 250.07 225.69
  Q 250.06 216.63 250.19 206.70
  Q 250.20 205.82 249.44 205.36
  C 246.27 203.44 243.63 200.24 245.32 196.39
  C 246.11 194.60 248.10 194.39 249.76 194.77
  A 2.03 2.02 -6.9 0 1 251.13 195.84
  C 252.50 198.60 253.99 200.60 257.53 200.24
  C 265.39 199.46 266.12 192.47 265.36 185.95
  Q 265.30 185.45 264.80 185.38
  C 256.53 184.14 253.15 177.01 253.87 169.11
  Q 253.72 164.21 257.18 162.04
  Q 259.20 160.76 264.03 160.52
  Q 271.64 160.13 277.51 160.59
  Q 284.46 161.13 285.41 168.25
  Z
  M 260.31 219.77
  Q 256.46 224.70 257.93 229.92
  C 259.33 234.88 264.02 238.32 268.95 238.18
  Q 278.13 237.91 280.45 228.70
  Q 281.11 226.11 280.65 216.88
  L 280.67 211.25
  A 0.58 0.58 0.0 0 0 280.01 210.67
  Q 268.64 212.27 260.31 219.77
  Z"
/>
<path fill="#371f17" d="
  M 226.30 170.10
  Q 221.70 171.63 219.46 167.74
  C 217.87 158.77 228.83 159.86 228.18 166.24
  Q 227.98 168.23 226.30 170.10
  Z"
/>
<path fill="#371f17" d="
  M 325.28 167.70
  Q 322.96 171.65 319.23 170.00
  Q 316.81 168.62 317.25 165.48
  C 318.16 158.95 327.83 160.98 325.28 167.70
  Z"
/>
<path fill="#fe8f83" d="
  M 219.46 167.74
  Q 221.70 171.63 226.30 170.10
  Q 232.67 177.71 225.59 183.65
  Q 223.57 185.34 221.63 185.60
  C 218.05 186.07 215.58 185.26 213.49 182.35
  Q 207.87 174.55 215.50 169.03
  Q 216.25 168.49 219.46 167.74
  Z"
/>
<path fill="#fe8f83" d="
  M 325.28 167.70
  Q 330.17 168.68 332.08 172.93
  C 334.35 177.97 332.60 183.32 327.28 184.98
  C 323.05 186.30 318.90 185.60 316.67 181.43
  Q 312.84 174.27 319.23 170.00
  Q 322.96 171.65 325.28 167.70
  Z"
/>
<path fill="#ffffff" d="
  M 253.87 169.11
  C 253.15 177.01 256.53 184.14 264.80 185.38
  Q 265.30 185.45 265.36 185.95
  C 266.12 192.47 265.39 199.46 257.53 200.24
  C 253.99 200.60 252.50 198.60 251.13 195.84
  A 2.03 2.02 -6.9 0 0 249.76 194.77
  C 248.10 194.39 246.11 194.60 245.32 196.39
  C 243.63 200.24 246.27 203.44 249.44 205.36
  Q 250.20 205.82 250.19 206.70
  Q 250.06 216.63 250.07 225.69
  Q 250.09 240.19 262.85 244.99
  C 272.29 248.54 282.05 243.07 286.39 234.01
  Q 287.92 230.81 287.90 226.06
  Q 287.84 215.91 287.77 206.24
  A 1.12 1.10 74.7 0 1 288.30 205.29
  C 290.75 203.83 292.55 202.83 293.32 199.82
  Q 294.06 196.92 291.42 195.09
  Q 291.19 194.93 290.94 194.84
  Q 288.03 193.80 286.66 196.57
  Q 283.78 202.34 277.82 199.73
  C 272.66 197.47 272.07 191.21 272.59 185.86
  Q 272.64 185.39 273.10 185.35
  C 283.19 184.49 285.54 177.47 285.41 168.25
  Q 308.76 181.38 311.92 206.87
  Q 315.10 232.57 297.22 250.36
  Q 293.61 253.94 286.44 257.38
  C 272.09 264.27 255.47 261.47 243.47 251.32
  C 232.25 241.83 226.72 226.65 227.64 211.65
  Q 228.61 195.69 238.36 182.60
  Q 244.68 174.12 253.87 169.11
  Z"
/>
<circle fill="#001c0c" cx="159.84" cy="201.20" r="5.62"/>
<path fill="#001c0c" d="
  M 413.21 224.13
  Q 412.57 225.86 412.45 227.98
  C 412.24 231.45 407.75 233.32 406.54 229.42
  Q 405.80 227.03 405.46 224.10
  A 1.60 1.59 15.3 0 0 404.84 223.02
  Q 402.46 221.23 399.38 220.65
  C 397.65 220.32 395.93 218.95 396.29 216.96
  Q 396.63 215.10 398.26 214.54
  Q 400.11 213.89 402.04 213.39
  C 405.65 212.46 405.95 208.42 406.22 205.43
  Q 406.35 204.02 407.39 203.18
  C 410.30 200.83 412.81 204.32 412.67 207.00
  C 412.53 209.87 414.02 212.90 417.14 213.42
  C 419.62 213.83 423.47 215.44 421.84 218.77
  Q 421.18 220.11 419.66 220.48
  Q 417.93 220.89 416.25 221.55
  C 414.99 222.05 413.71 222.78 413.21 224.13
  Z"
/>
<path fill="#f18f2d" d="
  M 140.77 238.10
  Q 134.86 238.01 130.53 234.72
  C 128.45 233.14 125.68 230.88 124.32 228.39
  C 123.37 226.64 122.64 224.86 121.28 223.38
  Q 120.49 222.52 119.73 221.67
  Q 119.40 221.30 118.93 221.14
  C 112.81 219.01 110.82 216.06 106.76 212.23
  Q 106.88 210.11 106.37 208.60
  Q 108.41 208.25 110.44 206.81
  A 0.62 0.62 0.0 0 1 111.34 207.03
  Q 115.94 215.65 125.90 216.78
  Q 126.42 216.84 126.61 217.33
  C 126.95 218.24 126.97 219.37 127.34 220.26
  Q 132.03 231.53 143.94 232.85
  Q 145.46 233.02 143.94 233.19
  Q 140.40 233.58 140.77 238.10
  Z"
/>
<path fill="#ffffff" d="
  M 106.37 208.60
  Q 106.88 210.11 106.76 212.23
  C 106.44 217.03 106.74 221.88 106.71 226.65
  Q 106.55 246.23 106.63 265.98
  C 106.64 270.25 107.82 274.39 111.39 276.83
  C 114.08 278.67 118.39 278.72 121.75 278.73
  Q 132.31 278.76 143.47 278.57
  Q 139.45 288.41 130.65 290.78
  Q 120.88 290.86 111.34 290.75
  C 104.96 290.68 99.09 286.31 99.10 279.74
  Q 99.11 244.63 99.19 209.04
  Q 99.20 208.64 99.59 208.64
  L 106.37 208.60
  Z"
/>
<path fill="#a34f48" d="
  M 280.65 216.88
  C 276.27 217.19 272.14 220.09 268.68 222.51
  Q 267.80 223.13 266.82 222.69
  L 260.31 219.77
  Q 268.64 212.27 280.01 210.67
  A 0.58 0.58 0.0 0 1 280.67 211.25
  L 280.65 216.88
  Z"
/>
<path fill="#ffc858" d="
  M 106.76 212.23
  C 110.82 216.06 112.81 219.01 118.93 221.14
  Q 119.40 221.30 119.73 221.67
  Q 120.49 222.52 121.28 223.38
  C 122.64 224.86 123.37 226.64 124.32 228.39
  C 125.68 230.88 128.45 233.14 130.53 234.72
  Q 134.86 238.01 140.77 238.10
  C 140.74 239.98 140.29 243.30 141.49 244.69
  C 142.95 246.39 145.83 246.12 147.22 244.48
  A 1.36 1.32 -24.6 0 0 147.55 243.63
  L 147.75 238.08
  Q 150.38 238.22 152.75 237.25
  A 0.55 0.54 76.9 0 1 153.50 237.72
  Q 154.29 249.42 154.05 261.64
  Q 153.85 271.94 144.93 277.67
  Q 144.23 278.12 144.69 278.70
  Q 143.67 278.76 143.47 278.57
  Q 132.31 278.76 121.75 278.73
  C 118.39 278.72 114.08 278.67 111.39 276.83
  C 107.82 274.39 106.64 270.25 106.63 265.98
  Q 106.55 246.23 106.71 226.65
  C 106.74 221.88 106.44 217.03 106.76 212.23
  Z
  M 122.08 226.95
  A 3.68 3.68 0.0 0 0 118.40 223.27
  L 118.26 223.27
  A 3.68 3.68 0.0 0 0 114.58 226.95
  L 114.58 266.09
  A 3.68 3.68 0.0 0 0 118.26 269.77
  L 118.40 269.77
  A 3.68 3.68 0.0 0 0 122.08 266.09
  L 122.08 226.95
  Z
  M 147.7721 258.0589
  A 3.34 3.34 0.0 0 0 144.3744 254.7777
  L 143.9744 254.7847
  A 3.34 3.34 0.0 0 0 140.6932 258.1825
  L 140.8479 267.0411
  A 3.34 3.34 0.0 0 0 144.2456 270.3223
  L 144.6456 270.3153
  A 3.34 3.34 0.0 0 0 147.9268 266.9175
  L 147.7721 258.0589
  Z"
/>
<path fill="#fe8f83" d="
  M 280.65 216.88
  Q 281.11 226.11 280.45 228.70
  Q 278.13 237.91 268.95 238.18
  C 264.02 238.32 259.33 234.88 257.93 229.92
  Q 256.46 224.70 260.31 219.77
  L 266.82 222.69
  Q 267.80 223.13 268.68 222.51
  C 272.14 220.09 276.27 217.19 280.65 216.88
  Z"
/>
<rect fill="#001c0c" x="114.58" y="223.27" width="7.50" height="46.50" rx="3.68"/>
<path fill="#f18f2d" d="
  M 164.41 266.60
  Q 162.87 267.20 161.63 268.43
  Q 160.81 269.24 160.16 271.25
  C 158.02 277.87 151.16 279.78 144.69 278.70
  Q 144.23 278.12 144.93 277.67
  Q 153.85 271.94 154.05 261.64
  Q 154.29 249.42 153.50 237.72
  A 0.55 0.54 76.9 0 0 152.75 237.25
  Q 150.38 238.22 147.75 238.08
  Q 147.58 235.42 145.72 233.57
  Q 145.10 232.95 145.97 232.92
  C 150.89 232.71 154.98 231.37 158.49 227.79
  Q 158.99 227.28 159.51 227.76
  Q 161.39 229.48 163.69 230.45
  Q 164.25 230.69 164.25 231.30
  L 164.41 266.60
  Z"
/>
<path fill="#d28c64" d="
  M 194.30 271.64
  Q 192.73 268.64 191.00 266.99
  Q 189.50 265.57 186.62 265.44
  Q 181.46 265.21 176.24 265.49
  L 176.13 241.09
  Q 176.13 240.44 176.77 240.35
  Q 181.14 239.72 185.22 241.32
  Q 194.70 245.03 196.71 255.99
  Q 198.23 264.22 194.30 271.64
  Z"
/>
<path fill="#ffffff" d="
  M 366.99 255.40
  Q 372.20 260.03 377.37 265.12
  Q 388.29 275.87 395.20 289.50
  Q 404.52 307.90 400.82 329.30
  Q 401.18 317.06 399.99 312.23
  Q 399.16 308.88 394.65 308.21
  Q 394.29 307.15 393.60 303.99
  Q 392.01 296.76 387.51 288.32
  C 380.96 276.03 371.98 267.11 361.40 257.90
  C 360.19 256.84 360.22 255.03 361.41 253.93
  Q 363.60 251.94 366.99 255.40
  Z"
/>
<rect fill="#001c0c" x="-3.54" y="-7.77" transform="translate(144.31,262.55) rotate(-1.0)" width="7.08" height="15.54" rx="3.34"/>
<path fill="#a34f48" d="
  M 194.30 271.64
  Q 191.28 277.48 184.87 278.61
  Q 180.88 279.32 176.90 278.84
  A 0.91 0.90 -86.1 0 1 176.11 277.93
  L 176.24 265.49
  Q 181.46 265.21 186.62 265.44
  Q 189.50 265.57 191.00 266.99
  Q 192.73 268.64 194.30 271.64
  Z"
/>
<path fill="#fec6ae" d="
  M 164.41 266.60
  Q 164.53 271.94 164.49 276.99
  Q 164.39 290.72 150.62 290.84
  Q 140.51 290.93 130.65 290.78
  Q 139.45 288.41 143.47 278.57
  Q 143.67 278.76 144.69 278.70
  C 151.16 279.78 158.02 277.87 160.16 271.25
  Q 160.81 269.24 161.63 268.43
  Q 162.87 267.20 164.41 266.60
  Z"
/>
<path fill="#a34f48" d="
  M 173.32 292.29
  Q 174.06 291.26 174.95 290.36
  Q 175.29 290.02 175.78 290.00
  L 183.00 289.74
  A 0.62 0.62 0.0 0 1 183.60 290.58
  Q 182.10 294.43 180.68 298.61
  Q 175.11 315.00 175.31 332.79
  A 0.66 0.66 0.0 0 1 174.60 333.46
  Q 147.23 331.64 131.77 311.38
  Q 128.91 307.63 127.45 303.64
  A 0.46 0.46 0.0 0 1 127.88 303.03
  Q 136.77 303.04 145.82 303.33
  Q 155.55 303.64 160.46 302.06
  Q 168.04 299.64 173.32 292.29
  Z"
/>
<path fill="#ffffff" d="
  M 196.79 361.47
  L 192.55 361.91
  Q 192.02 361.96 191.84 361.46
  C 187.96 350.75 187.13 340.32 187.58 328.50
  Q 188.35 308.32 197.25 289.93
  Q 199.58 289.66 200.37 290.29
  A 2.40 2.40 0.0 0 1 201.08 293.11
  Q 190.94 316.82 192.92 342.51
  Q 193.67 352.17 196.79 361.47
  Z"
/>
<path fill="#ffffff" d="
  M 306.94 311.57
  Q 301.68 315.18 299.18 318.19
  Q 289.34 330.05 290.76 344.25
  Q 291.35 350.18 295.59 357.52
  Q 295.47 360.75 294.30 363.59
  C 293.10 366.54 292.21 369.38 290.53 372.08
  Q 287.62 376.75 283.47 380.00
  Q 267.06 392.89 247.29 387.07
  Q 243.46 385.94 239.38 383.42
  Q 237.89 382.50 236.14 381.44
  Q 231.64 375.79 226.40 371.53
  Q 213.51 351.55 218.82 330.56
  C 223.44 312.28 236.57 298.41 254.83 292.83
  Q 261.40 290.82 268.74 291.10
  Q 292.86 292.04 306.94 311.57
  Z"
/>
<path fill="#a34f48" d="
  M 330.23 297.06
  L 333.38 304.35
  Q 333.58 304.82 333.07 304.84
  L 326.85 305.13
  Q 322.33 298.37 330.23 297.06
  Z"
/>
<path fill="#a34f48" d="
  M 394.65 308.21
  Q 399.16 308.88 399.99 312.23
  Q 401.18 317.06 400.82 329.30
  Q 399.90 339.50 394.48 347.77
  Q 381.23 368.00 356.73 370.46
  C 355.31 370.61 354.26 370.78 353.06 369.97
  Q 338.46 360.11 322.16 362.13
  Q 320.21 362.37 318.51 361.62
  C 307.99 357.02 300.84 345.45 304.36 334.37
  Q 306.78 326.71 313.85 321.94
  Q 314.37 322.58 316.49 322.45
  Q 318.43 326.31 318.82 328.49
  C 319.61 332.81 318.74 338.60 319.64 342.48
  Q 321.19 349.18 327.48 352.86
  C 339.16 359.70 356.13 357.80 367.23 352.03
  Q 379.49 345.67 386.43 333.40
  Q 391.21 324.96 391.34 313.77
  Q 391.39 309.67 394.65 308.21
  Z"
/>
<path fill="#ffffff" d="
  M 364.81 309.79
  Q 361.21 317.55 353.42 320.16
  Q 346.72 322.41 338.87 322.41
  Q 327.43 322.41 316.49 322.45
  Q 314.37 322.58 313.85 321.94
  Q 321.74 317.38 329.00 317.46
  Q 341.44 317.58 344.75 317.28
  C 351.57 316.66 357.57 314.16 364.81 309.79
  Z"
/>
<path fill="#001c0c" d="
  M 130.67 374.03
  C 130.47 374.72 129.94 375.27 129.82 375.93
  Q 129.42 377.98 128.77 380.31
  C 128.10 382.72 125.71 383.38 123.75 381.67
  A 1.41 1.40 -72.0 0 1 123.28 380.74
  Q 123.22 380.03 122.77 379.48
  Q 122.42 379.04 122.46 378.48
  Q 122.68 375.79 120.83 373.98
  C 119.40 372.58 117.41 372.24 115.49 371.78
  C 113.18 371.24 111.82 369.18 113.24 366.92
  Q 113.39 366.67 113.66 366.55
  Q 116.04 365.42 118.53 364.62
  C 121.48 363.68 122.79 360.66 122.70 357.77
  C 122.64 355.50 124.75 353.15 127.15 354.22
  C 129.69 355.36 129.38 359.13 129.68 361.47
  Q 129.75 362.01 130.13 362.41
  C 130.94 363.26 131.74 364.17 132.91 364.52
  Q 135.33 365.24 137.50 366.16
  Q 139.38 366.96 139.15 369.27
  A 2.40 2.40 0.0 0 1 137.52 371.30
  L 131.30 373.37
  Q 130.82 373.54 130.67 374.03
  Z"
/>
<path fill="#fec6ae" d="
  M 295.59 357.52
  Q 298.87 363.27 303.76 367.43
  A 0.64 0.64 0.0 0 1 303.71 368.44
  Q 288.46 378.92 280.53 395.12
  Q 274.17 397.54 272.01 398.04
  Q 257.94 401.25 244.29 395.03
  L 236.14 381.44
  Q 237.89 382.50 239.38 383.42
  Q 243.46 385.94 247.29 387.07
  Q 267.06 392.89 283.47 380.00
  Q 287.62 376.75 290.53 372.08
  C 292.21 369.38 293.10 366.54 294.30 363.59
  Q 295.47 360.75 295.59 357.52
  Z"
/>
<path fill="#d28c64" d="
  M 235.30 408.36
  Q 233.74 418.44 230.24 426.43
  L 221.91 426.64
  Q 223.50 420.20 220.43 414.58
  C 217.55 409.31 212.60 405.80 206.59 404.94
  Q 193.35 403.03 185.83 414.32
  Q 182.10 419.90 183.50 426.72
  L 169.69 426.66
  A 1.87 1.87 0.0 0 1 168.08 425.71
  C 161.64 414.16 161.82 400.07 169.23 388.93
  C 181.69 370.18 206.06 369.63 221.79 384.20
  Q 232.61 394.22 235.30 408.36
  Z
  M 215.76 391.89
  A 5.34 5.34 0.0 0 0 210.42 386.55
  A 5.34 5.34 0.0 0 0 205.08 391.89
  A 5.34 5.34 0.0 0 0 210.42 397.23
  A 5.34 5.34 0.0 0 0 215.76 391.89
  Z
  M 198.61 392.01
  A 5.30 5.30 0.0 0 0 193.31 386.71
  A 5.30 5.30 0.0 0 0 188.01 392.01
  A 5.30 5.30 0.0 0 0 193.31 397.31
  A 5.30 5.30 0.0 0 0 198.61 392.01
  Z
  M 183.71 403.03
  A 5.39 5.39 0.0 0 0 178.32 397.64
  A 5.39 5.39 0.0 0 0 172.93 403.03
  A 5.39 5.39 0.0 0 0 178.32 408.42
  A 5.39 5.39 0.0 0 0 183.71 403.03
  Z"
/>
<path fill="#d28c64" d="
  M 339.98 426.57
  Q 341.05 414.69 331.42 408.14
  Q 324.01 403.11 316.51 404.71
  Q 298.95 408.46 301.39 426.64
  L 288.76 426.77
  A 0.65 0.64 86.6 0 1 288.11 426.19
  Q 285.71 402.62 301.71 385.73
  C 310.99 375.94 325.38 371.03 338.38 376.09
  Q 353.93 382.15 358.49 397.66
  Q 362.91 412.74 354.67 426.32
  A 0.72 0.72 0.0 0 1 354.06 426.66
  L 339.98 426.57
  Z
  M 328.0493 397.4815
  A 5.50 5.16 94.7 0 0 333.6426 392.4228
  A 5.50 5.16 94.7 0 0 328.9507 386.5185
  A 5.50 5.16 94.7 0 0 323.3574 391.5772
  A 5.50 5.16 94.7 0 0 328.0493 397.4815
  Z
  M 312.2183 397.4063
  A 5.35 5.16 78.7 0 0 316.2300 391.1489
  A 5.35 5.16 78.7 0 0 310.1217 386.9137
  A 5.35 5.16 78.7 0 0 306.1100 393.1711
  A 5.35 5.16 78.7 0 0 312.2183 397.4063
  Z
  M 344.2761 408.5578
  A 5.59 5.18 88.4 0 0 349.2980 402.8254
  A 5.59 5.18 88.4 0 0 343.9639 397.3822
  A 5.59 5.18 88.4 0 0 338.9420 403.1146
  A 5.59 5.18 88.4 0 0 344.2761 408.5578
  Z"
/>
<circle fill="#371f17" cx="210.42" cy="391.89" r="5.34"/>
<ellipse fill="#371f17" cx="0.00" cy="0.00" transform="translate(328.50,392.00) rotate(94.7)" rx="5.50" ry="5.16"/>
<ellipse fill="#371f17" cx="0.00" cy="0.00" transform="translate(311.17,392.16) rotate(78.7)" rx="5.35" ry="5.16"/>
<circle fill="#371f17" cx="193.31" cy="392.01" r="5.30"/>
<path fill="#a34f48" d="
  M 244.29 395.03
  Q 257.94 401.25 272.01 398.04
  Q 274.17 397.54 280.53 395.12
  Q 276.57 404.18 275.88 413.46
  A 1.37 1.36 86.3 0 1 274.80 414.69
  Q 262.24 417.31 249.92 414.08
  A 1.47 1.46 -86.5 0 1 248.84 412.85
  Q 248.40 409.41 247.46 405.85
  Q 246.10 400.72 244.29 395.03
  Z"
/>
<ellipse fill="#371f17" cx="0.00" cy="0.00" transform="translate(344.12,402.97) rotate(88.4)" rx="5.59" ry="5.18"/>
<circle fill="#371f17" cx="178.32" cy="403.03" r="5.39"/>
<path fill="#371f17" d="
  M 221.91 426.64
  L 183.50 426.72
  Q 182.10 419.90 185.83 414.32
  Q 193.35 403.03 206.59 404.94
  C 212.60 405.80 217.55 409.31 220.43 414.58
  Q 223.50 420.20 221.91 426.64
  Z"
/>
<path fill="#371f17" d="
  M 339.98 426.57
  L 301.39 426.64
  Q 298.95 408.46 316.51 404.71
  Q 324.01 403.11 331.42 408.14
  Q 341.05 414.69 339.98 426.57
  Z"
/>
<path fill="#a34f48" d="
  M 235.30 408.36
  Q 237.62 417.19 236.98 425.97
  Q 236.94 426.50 236.41 426.49
  L 230.24 426.43
  Q 233.74 418.44 235.30 408.36
  Z"
/>
</svg>
