<?xml version="1.0" encoding="utf-8"?>
<!-- Generator: Adobe Illustrator 16.0.0, SVG Export Plug-In . SVG Version: 6.00 Build 0)  -->
<!DOCTYPE svg PUBLIC "-//W3C//DTD SVG 1.1//EN" "http://www.w3.org/Graphics/SVG/1.1/DTD/svg11.dtd">
<svg version="1.1" id="图层_1" xmlns:svg="http://www.w3.org/2000/svg"
	 xmlns="http://www.w3.org/2000/svg" xmlns:xlink="http://www.w3.org/1999/xlink" x="0px" y="0px" width="360px" height="360px"
	 viewBox="0 0 360 360" enable-background="new 0 0 360 360" xml:space="preserve">
<g>
	<title>Layer 1</title>
	<g id="svg_62">
		<path id="svg_63" fill="none" stroke="#695438" stroke-width="2" d="M118.88,34.35c-1.52,8.146,0.65,15.2,6.51,21.16"/>
		<path id="svg_64" fill="none" stroke="#52362A" stroke-width="2" d="M125.39,55.509c2.913,2.307,6.356,4.344,10.33,6.11"/>
		<path id="svg_65" fill="none" stroke="#808E86" stroke-width="2" d="M135.72,61.62c-5.52,7.14-9.72,14.603-12.6,22.39
			c-0.12,0.313-0.033,0.554,0.26,0.72l3.7,2.11"/>
		<path id="svg_66" fill="none" stroke="#695438" stroke-width="2" d="M127.08,86.839c5.06,3.907,8.323,8.427,9.79,13.56
			c3.207,11.24-0.023,20.617-9.69,28.13c-0.229,0.176-0.402,0.416-0.5,0.69c-0.16,0.46-0.204,0.963-0.13,1.51
			c0.91,6.45-2.62,12.89-7.69,16.92c-0.338,0.275-0.39,0.772-0.115,1.111c0.093,0.114,0.216,0.201,0.355,0.249
			c8.71,2.92,15.41,10.04,18.42,18.6c3.8,10.773,2.624,21.123-3.53,31.051c-0.6,0.973-1.777,2.286-3.53,3.939
			c-2.32,2.18-3.453,4.434-3.4,6.76"/>
		<path id="svg_67" fill="none" stroke="#808E86" stroke-width="2" d="M127.06,209.359c-5.934,12.26-9.157,25.117-9.67,38.57
			c-0.45,11.82,0.38,22.25,4.26,32.959c0.12,0.334,0.357,0.484,0.71,0.451l4.24-0.44"/>
		<path id="svg_68" fill="none" stroke="#695438" stroke-width="2" d="M126.6,280.899c10.493,0.147,20.363,3.5,29.61,10.06"/>
		<path id="svg_69" fill="none" stroke="#808E86" stroke-width="2" d="M156.21,290.959c3.493,2.84,6.74,6.145,9.74,9.91"/>
		<path id="svg_70" fill="none" stroke="#7F715D" stroke-width="2" d="M165.95,300.869l8.15,13.59"/>
		<path id="svg_71" fill="none" stroke="#52362A" stroke-width="2" d="M174.1,314.459c1.207,3.794,2.263,7.4,3.17,10.82
			c0.626,2.373,1.086,4.707,1.38,7c0.078,0.594,0.505,1.08,1.081,1.23c8.213,2.152,16.506,2.356,24.879,0.609
			c0.592-0.123,1.031-0.623,1.08-1.23c0.461-6.186,2.011-12.299,4.65-18.34"/>
		<path id="svg_72" fill="none" stroke="#7F715D" stroke-width="2" d="M210.34,314.549c5.287-10.799,13.014-19.693,23.18-26.68
			c0.29-0.202,0.36-0.602,0.158-0.891c-0.031-0.045-0.066-0.084-0.107-0.119c-3.26-2.773-5.983-6.076-8.17-9.91"/>
		<path id="svg_73" fill="none" stroke="#808E86" stroke-width="2" d="M225.4,276.949c-2.827-4.893-4.438-9.316-4.83-13.27
			c-0.947-9.467,1.859-18.154,8.42-26.061c1.666-2.006,4.253-4.213,7.76-6.619"/>
		<path id="svg_74" fill="none" stroke="#695438" stroke-width="2" d="M236.75,231c5.873-3.453,12.51-5.601,19.91-6.44"/>
		<path id="svg_75" fill="none" stroke="#52362A" stroke-width="2" d="M256.66,224.56l6.22-0.29c0.341-0.014,0.443-0.177,0.31-0.49
			l-3.149-7.29"/>
		<path id="svg_76" fill="none" stroke="#695438" stroke-width="2" d="M260.04,216.489c-1.307-2.739-2.021-4.55-2.14-5.43
			c-0.78-5.62,6.91-8.46,9.449-3.101c2.434,5.141,4.891,10.363,7.371,15.67c0.316,0.688,1.086,1.051,1.829,0.86
			c3.62-0.946,6.94-2.187,9.96-3.72c2.971-1.5,7.35-1.641,9.17,1.51c1.46,2.547,1.107,4.86-1.06,6.939"/>
		<path id="svg_77" fill="none" stroke="#808E86" stroke-width="2" d="M294.62,229.219c-7.24,4.371-13.24,6.871-20.06,7.49
			c-2.207,0.201-7.457,0.26-15.75,0.181c-4.84-0.054-9.891,1.44-15.15,4.479"/>
		<path id="svg_78" fill="none" stroke="#52362A" stroke-width="2" d="M243.66,241.369c-4.713,3.18-7.877,7.324-9.49,12.43
			c-3.52,11.08,3.63,22.65,14.15,27.25c1.133,0.5,2.35,0.67,3.649,0.511c10.867-1.347,21.167,1.267,30.9,7.84
			c1.2,0.81,2.25,0.64,3.67,0.489c16.333-1.639,28.917-9.203,37.75-22.689c3.613-5.514,5.727-11.67,6.34-18.47"/>
		<path id="svg_79" fill="none" stroke="#808E86" stroke-width="2" d="M330.63,248.729c2.467-14.267,0.594-27.533-5.62-39.8
			c-4.606-9.087-10.55-17.213-17.83-24.381c-3.446-3.393-6.906-6.633-10.38-9.719"/>
		<path id="svg_80" fill="none" stroke="#695438" stroke-width="2" d="M296.8,174.83c0.38-3.247,1.653-5.35,3.82-6.31
			c1.106-0.494,1.087-0.934-0.061-1.32c-3.053-1.034-5.713-2.63-7.979-4.79"/>
		<path id="svg_81" fill="none" stroke="#52362A" stroke-width="2" d="M292.58,162.41c4.007-9,6.6-18.914,7.78-29.74
			c1.753-16.066,0.369-31.066-4.15-45c-2.79-8.59-6.66-15.52-11.271-22.71c-0.967-1.507-0.673-2.624,0.881-3.35
			c2.9-1.35,5.92-2.42,8.39-4.52c7.207-6.12,9.804-14.046,7.79-23.78"/>
		<path id="svg_82" fill="none" stroke="#808E86" stroke-width="2" d="M302,33.31c-3.514-9.927-9.943-16.1-19.29-18.52
			c-6.953-1.793-13.366-0.32-19.239,4.42"/>
		<path id="svg_83" fill="none" stroke="#695438" stroke-width="2" d="M263.471,19.209c-5.361,4.833-7.25,10.816-5.671,17.95
			c0.24,1.093-0.069,1.97-0.93,2.63c-1.49,1.13-2.99,0.23-4.181-0.8c-1.353-1.18-2.796-2.103-4.33-2.77"/>
		<path id="svg_84" fill="none" stroke="#808E86" stroke-width="2" d="M248.359,36.219c-1.272-0.406-2.229-1.19-2.869-2.35
			c-0.16-0.287-0.384-0.51-0.67-0.67c-3-1.64-5.004-2.64-6.01-3c-25.627-9.187-50.44-7.364-74.44,5.47"/>
		<path id="svg_85" fill="none" stroke="#695438" stroke-width="2" d="M164.37,35.669c-0.347-1.813-0.66-3.47-0.94-4.97
			c-0.9-4.773-3.023-8.59-6.37-11.45"/>
		<path id="svg_86" fill="none" stroke="#808E86" stroke-width="2" d="M157.06,19.25c-6.26-5.047-13.097-6.43-20.51-4.15
			c-9.493,2.92-15.383,9.336-17.67,19.25"/>
		<path id="svg_87" fill="none" stroke="#E9C6B2" stroke-width="2" d="M157.06,19.25c-3.24-1.146-5.57-1.73-6.99-1.75
			c-9.51-0.14-19.98,4.79-23.85,13.7c-0.687,1.586-1.344,3.196-1.97,4.83c-0.414,1.087-1.146,1.377-2.2,0.87
			c-1.173-0.56-2.23-1.41-3.17-2.55"/>
		<path id="svg_88" fill="none" stroke="#E9C6B2" stroke-width="2" d="M164.37,35.669l-8.24,5.38"/>
		<path id="svg_89" fill="none" stroke="#695438" stroke-width="2" d="M156.13,41.049c0.093-5.486-1.823-9.287-5.75-11.4
			c-2.58-1.387-5.417-1.83-8.51-1.33c-9.78,1.57-15.24,14.97-7.46,22.15"/>
		<path id="svg_90" fill="none" stroke="#BB6E56" stroke-width="2" d="M134.41,50.469c-3.287,0.787-6.293,2.467-9.02,5.04"/>
		<path id="svg_91" fill="none" stroke="#7F5648" stroke-width="2" d="M152.62,43.959c-1.62,0.233-2.487-0.19-2.6-1.27
			c-0.39-3.82-0.84-7.4-5.54-7.63c-6.08-0.29-9.5,7.45-4.11,11.57c1.17,0.9,3.42,1.99,3.19,3.68"/>
		<path id="svg_92" fill="none" stroke="#52362A" stroke-width="2" d="M143.56,50.31c-2.56,3.187-5.61,3.24-9.15,0.16"/>
		<path id="svg_93" fill="none" stroke="#D1A7A4" stroke-width="2" d="M135.72,61.62l6.98-8.07"/>
		<path id="svg_94" fill="none" stroke="#FFC7C1" stroke-width="2" d="M142.7,53.549l9.92-9.59"/>
		<path id="svg_95" fill="none" stroke="#808E86" stroke-width="2" d="M152.62,43.959l3.51-2.91"/>
		<path id="svg_96" fill="none" stroke="#D16F66" stroke-width="2" d="M142.7,53.549c-0.02-0.52,0.163-1.03,0.55-1.53
			c0.24-0.313,0.376-0.577,0.41-0.79c0.046-0.333,0.013-0.64-0.1-0.92"/>
		<path id="svg_97" fill="none" stroke="#BB6E56" stroke-width="2" d="M297.17,37.959c-1.12,8.1-6.07,13.217-14.85,15.35
			c-0.087,0.02-0.184-0.164-0.291-0.55"/>
		<path id="svg_98" fill="none" stroke="#695438" stroke-width="2" d="M282.029,52.759c11.83-6.23,7.811-23.05-5.01-24.55
			c-4.039-0.473-7.406,0.733-10.1,3.62c-2.641,2.833-3.537,5.887-2.689,9.16c0.732,2.833,2.373,3.79,4.92,2.87"/>
		<path id="svg_99" fill="none" stroke="#E88E74" stroke-width="2" d="M269.15,43.859c0.513,0.854,1.513,1.41,3,1.67
			c1.066,0.18,2.127,0.457,3.18,0.83c1.1,0.394,2.279,0.613,3.54,0.66"/>
		<path id="svg_100" fill="none" stroke="#695438" stroke-width="2" d="M278.87,47.02c-1.181,0.88-1.887,1.807-2.12,2.78
			c-0.08,0.333-0.029,0.644,0.15,0.93c0.72,1.16,1.779,2,3.18,2.52"/>
		<path id="svg_101" fill="none" stroke="#BB6E56" stroke-width="2" d="M280.08,53.25c0.993,2.02,2.303,3.657,3.93,4.91
			c1.063,0.82,1.263,2.343,0.447,3.402c-0.137,0.177-0.297,0.335-0.477,0.468c-0.461,0.34-0.987,0.577-1.58,0.71
			c-0.313,0.067-0.471,0.26-0.471,0.58c0,0.093-0.029,0.18-0.09,0.26c-0.174,0.24-0.413,0.403-0.72,0.49
			c-1.087,0.3-2.106,0.777-3.06,1.43c-0.367,0.253-0.754,0.477-1.16,0.67c-1.34,0.62-1.23,2.19-0.461,3.21
			c0.874,1.14,1.577,2.35,2.11,3.63c1.813,4.367,3.523,8.78,5.13,13.24c6.62,18.39,6.051,38.5,1.92,57.25
			c-0.906,4.1-2.16,8.077-3.76,11.93c-0.469,1.134,0.066,2.437,1.2,2.92l9.54,4.06"/>
		<path id="svg_102" fill="none" stroke="#E9C6B2" stroke-width="2" d="M296.8,174.83c-2.26-2.307-4.12-2.797-5.579-1.47
			c-1.191,1.1-1.221,2.91-0.011,3.97c10.58,9.209,19.56,18.129,26.11,30.42c3,5.626,5.029,10.85,6.09,15.67
			c0.46,2.105,0.81,3.513,1.05,4.22"/>
		<path id="svg_103" fill="none" stroke="#BB6E56" stroke-width="2" d="M324.46,227.64c-2.173,0.974-3.276,2.827-3.31,5.56
			c-0.087,7.461-1.724,14.004-4.91,19.631c-4.627,8.18-11.027,14.389-19.2,18.629c-11.101,5.771-28.07,7.67-39.75,0.83
			c-4.193-2.453-6.807-5.913-7.84-10.379c-0.9-3.881-0.03-9.671-0.82-13.99c-0.26-1.453-1.036-3.467-2.33-6.041"/>
		<path id="svg_104" fill="none" stroke="#E9C6B2" stroke-width="2" d="M246.3,241.879c7.294-0.025,14.753-0.039,22.38-0.039
			c5.233,0,10.084-0.75,14.551-2.25c5.193-1.74,8.99-5.197,11.39-10.371"/>
		<path id="svg_105" fill="none" stroke="#BB6E56" stroke-width="2" d="M260.04,216.489c-5.267,0.874-6.394,3.563-3.38,8.07"/>
		<path id="svg_106" fill="none" stroke="#E9C6B2" stroke-width="2" d="M236.75,231c-9.387-13.021-22.12-19.844-38.2-20.471
			c-4.894-0.187-9.53,0.391-13.909,1.73c-18.261,5.58-31.391,19.449-36.011,37.729c-3.54,13.993-1.013,27.649,7.58,40.97"/>
		<path id="svg_107" fill="none" stroke="#E9C6B2" stroke-width="2" d="M126.6,280.899c-2.08-6.2-3.37-12.521-3.87-18.96
			c-1.32-17.127,1.4-33.594,8.16-49.4c0.424-0.992,0.134-2.146-0.71-2.82c-0.527-0.42-1.567-0.539-3.12-0.359"/>
		<path id="svg_108" fill="none" stroke="#E9C6B2" stroke-width="2" d="M127.08,86.839c2.126-5.46,3.733-9.146,4.82-11.06
			c11.98-21.06,29.144-35.183,51.491-42.37c6.673-2.147,13.066-3.374,19.18-3.68c15.4-0.78,30.104,2.73,44.109,10.53
			c0.496,0.278,1.123,0.104,1.398-0.387c0.011-0.021,0.021-0.042,0.031-0.063c0.534-1.1,0.617-2.297,0.25-3.59"/>
		<path id="svg_109" fill="none" stroke="#D1A7A4" stroke-width="2" d="M302,33.31c-0.406,1.787-2.017,3.336-4.83,4.65"/>
		<path id="svg_110" fill="none" stroke="#E9C6B2" stroke-width="2" d="M297.17,37.959c-1.934-5.96-4.72-10.557-8.359-13.79
			c-5.747-5.1-12.523-7.2-20.33-6.3c-0.613,0.073-1.431,0.316-2.45,0.73c-0.88,0.36-1.733,0.563-2.56,0.61"/>
		<path id="svg_111" fill="none" stroke="#52362A" stroke-width="2" d="M282.029,52.759l-1.949,0.49"/>
		<path id="svg_112" fill="none" stroke="#7F5648" stroke-width="2" d="M278.87,47.02c1.819-1.293,2.81-2.977,2.97-5.05
			c0.471-6.32-8.51-9.68-10.96-3.68c-0.67,1.62-0.159,3.71-1.729,5.57"/>
		<path id="svg_113" fill="none" stroke="#D1A7A4" stroke-width="2" d="M243.66,241.369c0.347,0.428,1.227,0.598,2.64,0.51"/>
		<path id="svg_114" fill="none" stroke="#D1A7A4" stroke-width="2" d="M330.63,248.729c0.24-8.16-0.036-13.851-0.83-17.069
			c-0.553-2.234-2.333-3.574-5.34-4.021"/>
		<path id="svg_115" fill="none" stroke="#FFE3D7" stroke-width="2" d="M225.4,276.949c-0.08,2.154-0.51,4.177-1.291,6.07
			c-1.199,2.949-2.09,5.79-3.77,8.49c-1.939,3.113-4.293,5.753-7.061,7.92c-10.939,8.594-23,10.949-36.179,7.07
			c-2.553-0.754-5.19-1.971-7.91-3.65c-0.993-0.613-2.073-1.273-3.24-1.98"/>
		<path id="svg_116" fill="none" stroke="#D18B7B" stroke-width="2" d="M210.34,314.549c-4.24,1.613-7.08,2.588-8.52,2.92
			c-9.381,2.141-18.62,1.137-27.72-3.01"/>
		<path id="svg_117" fill="none" stroke="#808E86" stroke-width="2" d="M112.32,93.979c-0.28-1.84-0.34-3.57-1.11-5.31
			c-3.5-7.83-12.73-11.93-20.83-8.51c-6.38,2.69-11.2,9.2-9.06,16.19c0.51,1.69-0.21,3.22-1.66,4.09
			c-2.14,1.267-4.52,1.467-7.14,0.6c-1.513-0.5-2.443-1.54-2.79-3.12c-1.047-4.8-4.173-7.76-9.38-8.88
			c-4.14-0.89-9.37,1.14-11.76,4.87c-1.43,2.23-2.51,6.92-6.46,4.24c-2.56-1.74-5.62-3.41-8.78-2.84
			c-4.607,0.833-7.69,3.207-9.25,7.12c-2.93,7.39,2.06,14.53,10.01,14.1c3.38-0.18,5.39-2.72,7.14-5.25
			c0.193-0.28,0.46-0.443,0.8-0.49c3.627-0.487,6.07,0.73,7.33,3.65c0.83,1.93,0.64,4.11,1.93,5.84
			c1.967,2.64,4.637,3.963,8.01,3.97c1.37,0,2.59-1.08,3.66-1.83c2.84-1.98,6.1-0.38,7.43,2.54c0.193,0.42,0.223,0.85,0.09,1.29
			c-0.57,1.83-1.81,3.18-2.02,5.13c-0.233,2.087,0.313,3.954,1.64,5.6c2.393,2.953,5.486,4.043,9.28,3.27
			c3.47-0.71,4.87-3.69,6.11-6.61c0.293-0.693,0.968-1.148,1.72-1.16c2.067-0.047,4.07,0.17,6.01,0.65
			c0.72,0.18,1.253,0.593,1.6,1.24c2.92,5.473,7.28,7.316,13.08,5.53c5.52-1.7,8.5-8.21,4.81-13.06c-1.79-2.36-0.94-5.27,1.6-6.62
			c2.3-1.21,5.15-1.61,7.09-3.43c4.8-4.5,5.42-11.96,1.26-17.03c-2.3-2.8-5.54-4.513-9.72-5.14
			C112.593,94.56,112.38,94.346,112.32,93.979"/>
		<path id="svg_118" fill="none" stroke="#808E86" stroke-width="2" d="M36.18,128.029l-6.78,0.04c-0.26,0-0.393,0.133-0.4,0.4
			c-0.053,23.727-0.083,47.293-0.09,70.701c-0.01,6.569,5.86,10.939,12.24,11.01c6.36,0.073,12.797,0.083,19.31,0.029"/>
		<path id="svg_119" fill="none" stroke="#7F715D" stroke-width="2" d="M60.46,210.209c6.573,0.101,13.23,0.121,19.97,0.061
			c9.18-0.08,13.803-4.697,13.87-13.85c0.027-3.367,0-6.83-0.08-10.391"/>
		<path id="svg_120" fill="none" stroke="#79561D" stroke-width="2" d="M94.22,186.029l-0.16-35.3c0-0.407-0.187-0.69-0.56-0.85
			c-1.533-0.646-2.927-1.543-4.18-2.69c-0.347-0.32-0.687-0.31-1.02,0.03c-3.51,3.58-7.6,4.92-12.52,5.13
			c-0.58,0.02-0.663,0.236-0.25,0.65c1.24,1.233,1.917,2.736,2.03,4.51"/>
		<path id="svg_121" fill="none" stroke="#807232" stroke-width="2" d="M77.56,157.509l-0.2,5.55c-0.006,0.31-0.123,0.611-0.33,0.85
			c-1.39,1.64-4.27,1.91-5.73,0.21c-1.2-1.39-0.75-4.71-0.72-6.59"/>
		<path id="svg_122" fill="none" stroke="#79561D" stroke-width="2" d="M70.58,157.529c-0.247-3.013,0.81-4.65,3.17-4.91
			c1.013-0.113,1.013-0.227,0-0.34c-7.94-0.88-13.473-5.077-16.6-12.59c-0.37-0.89-0.39-2.02-0.73-2.93
			c-0.126-0.327-0.363-0.51-0.71-0.55c-6.64-0.753-11.493-4.003-14.56-9.75c-0.16-0.303-0.536-0.418-0.838-0.258
			c-0.021,0.012-0.042,0.024-0.062,0.038c-1.354,0.96-2.71,1.557-4.07,1.79"/>
		<path id="svg_123" fill="none" stroke="#F8AC43" stroke-width="2" d="M70.58,157.529c-3.94-0.06-7.354-1.187-10.24-3.38
			c-2.08-1.58-4.85-3.84-6.21-6.33c-0.95-1.75-1.68-3.53-3.04-5.01c-0.526-0.574-1.043-1.144-1.55-1.71
			c-0.22-0.247-0.487-0.423-0.8-0.53c-6.12-2.13-8.11-5.08-12.17-8.91"/>
		<path id="svg_124" fill="none" stroke="#F8C796" stroke-width="2" d="M36.57,131.66c0.08-1.414-0.05-2.624-0.39-3.63"/>
		<path id="svg_125" fill="none" stroke="#F8AC43" stroke-width="2" d="M77.56,157.509c1.753,0.094,3.42-0.183,5-0.83
			c0.275-0.116,0.592,0.017,0.708,0.297c0.023,0.055,0.037,0.113,0.042,0.173c0.527,7.8,0.71,15.773,0.55,23.92
			c-0.133,6.866-3.173,12.21-9.12,16.03c-0.467,0.3-0.547,0.643-0.24,1.029"/>
		<path id="svg_126" fill="none" stroke="#FFC783" stroke-width="2" d="M74.5,198.129c-0.68,0.041-1.087-0.003-1.22-0.129"/>
		<path id="svg_127" fill="none" stroke="#FFE4AC" stroke-width="2" d="M36.57,131.66c-0.32,4.8-0.02,9.65-0.05,14.42
			c-0.107,13.053-0.133,26.163-0.08,39.331c0.01,4.27,1.19,8.409,4.76,10.85c2.69,1.84,7,1.89,10.36,1.9
			c7.04,0.02,14.28-0.034,21.72-0.16"/>
		<path id="svg_128" fill="none" stroke="#FFE3D7" stroke-width="2" d="M73.28,198c-2.68,6.56-6.953,10.629-12.82,12.209"/>
		<path id="svg_129" fill="none" stroke="#F8AB6E" stroke-width="2" d="M94.22,186.029c-1.027,0.4-1.954,1.01-2.78,1.83
			c-0.546,0.54-1.037,1.48-1.47,2.82c-2.14,6.619-9,8.529-15.47,7.449"/>
		<path id="svg_130" fill="none" stroke="#52362A" stroke-width="2" d="M106.05,184.92l-0.13,12.439
			c-0.004,0.463,0.336,0.854,0.79,0.91c2.653,0.32,5.31,0.243,7.97-0.23c4.273-0.753,7.417-3.076,9.43-6.97"/>
		<path id="svg_131" fill="none" stroke="#695438" stroke-width="2" d="M124.11,191.069c2.62-4.946,3.423-10.163,2.41-15.65
			c-1.34-7.307-5.17-12.197-11.49-14.67c-2.72-1.067-5.537-1.39-8.45-0.97c-0.427,0.06-0.64,0.307-0.64,0.74l0.11,24.4"/>
		<path id="svg_132" fill="none" stroke="#BB6E56" stroke-width="2" d="M124.11,191.069c-1.046-2-2.146-3.55-3.3-4.649
			c-1-0.947-2.46-1.464-4.38-1.551c-3.44-0.152-6.9-0.137-10.38,0.051"/>
		<path id="svg_133" fill="none" stroke="#52362A" stroke-width="2" d="M103.13,211.719c-3.52,4.9-7.807,8.157-12.86,9.771
			c-3.273,1.054-8.153,1.478-14.64,1.271c-6.033-0.193-12.013-0.293-17.94-0.301c-0.254,0.004-0.458,0.211-0.455,0.465
			c0,0.05,0.009,0.1,0.025,0.146c0.974,2.66,2.414,5.24,4.32,7.74c10.307,13.507,24.583,20.866,42.83,22.08
			c0.363,0.027,0.68-0.245,0.708-0.608c0.001-0.021,0.002-0.041,0.002-0.063c-0.133-11.859,1.657-23.252,5.37-34.18
			c0.946-2.786,1.92-5.463,2.92-8.029c0.122-0.32-0.039-0.678-0.359-0.801c-0.077-0.029-0.159-0.043-0.241-0.039l-7.22,0.26
			c-0.327,0.014-0.603,0.133-0.83,0.359C104.167,210.39,103.624,211.033,103.13,211.719"/>
		<path id="svg_134" fill="none" stroke="#1C1E12" stroke-width="2" d="M113.31,346.149l38.41-0.08"/>
		<path id="svg_135" fill="none" stroke="#695438" stroke-width="2" d="M151.72,346.069l8.33-0.21"/>
		<path id="svg_136" fill="none" stroke="#52362A" stroke-width="2" d="M160.05,345.859l6.17,0.061
			c0.353,0.006,0.543-0.167,0.57-0.521c0.427-5.853-0.133-11.724-1.68-17.61"/>
		<path id="svg_137" fill="none" stroke="#695438" stroke-width="2" d="M165.11,327.789c-1.793-9.426-6.296-17.479-13.51-24.16
			c-15.73-14.569-40.1-14.02-52.56,4.73c-7.41,11.141-7.59,25.23-1.15,36.78c0.329,0.581,0.942,0.943,1.61,0.95l13.81,0.06"/>
		<path id="svg_138" fill="none" stroke="#BB6E56" stroke-width="2" d="M165.11,327.789c-1.04,6.721-2.727,12.744-5.06,18.07"/>
		<path id="svg_139" fill="none" stroke="#85563E" stroke-width="2" d="M151.72,346.069c1.06-4.294,0.566-8.313-1.48-12.06
			c-2.88-5.27-7.83-8.78-13.84-9.641c-8.827-1.273-15.747,1.854-20.76,9.381c-2.487,3.719-3.264,7.854-2.33,12.399"/>
		<path id="svg_140" fill="none" stroke="#1C1E12" stroke-width="2" d="M231.2,346.069L269.79,346"/>
		<path id="svg_141" fill="none" stroke="#695438" stroke-width="2" d="M269.79,346l14.08,0.09c0.248-0.001,0.479-0.129,0.61-0.34
			c5.492-9.054,6.766-18.607,3.819-28.66c-3.04-10.34-9.743-17.53-20.11-21.57c-13-5.061-27.39-0.15-36.67,9.641
			c-10.666,11.26-15.199,24.746-13.6,40.459c0.036,0.336,0.318,0.587,0.65,0.58l12.63-0.13"/>
		<path id="svg_142" fill="none" stroke="#85563E" stroke-width="2" d="M269.79,346c0.714-7.92-2.14-14.064-8.56-18.431
			c-4.94-3.353-9.91-4.497-14.91-3.43c-11.707,2.5-16.747,9.81-15.12,21.93"/>
		<path id="svg_143" fill="none" stroke="#695438" stroke-width="2" d="M168.76,59.56c4.89-4.63,9.06,5.28,12.62,1.08
			c2.84-3.35,1.13-7.47-2.08-9.72c-4.56-3.207-9.263-3.183-14.11,0.07c-3.35,2.25-5.59,8.71-0.15,10.12
			C166.5,61.489,167.76,60.5,168.76,59.56"/>
		<path id="svg_144" fill="none" stroke="#695438" stroke-width="2" d="M241.99,53.279c-5.02-5.65-15.18-5.05-18.74,1.95
			c-1.391,2.72-0.63,5.99,2.43,7.02c1.109,0.368,2.33,0.083,3.16-0.74c2.554-2.546,5.316-2.56,8.29-0.04
			c1.899,1.62,4.56,2,5.96-0.57C244.517,58.259,244.15,55.719,241.99,53.279"/>
		<path id="svg_145" fill="none" stroke="#695438" stroke-width="2" d="M168.79,80.989c0.12-2.7,2.55-5.03,5.16-3.39
			c1.67,1.05,1.75,3.4,2.62,5.05c1.45,2.73,5.3,1.57,5.98-1.02c1.86-7.16-4.03-14.84-11.8-13.87c-6.22,0.78-11.09,8.19-8.78,14.29
			C163.39,85.799,168.6,85.009,168.79,80.989"/>
		<path id="svg_146" fill="none" stroke="#695438" stroke-width="2" d="M235.87,77.719c0.779,0.444,1.283,1.252,1.34,2.15
			c0.06,1,0.29,1.93,0.69,2.79c1.57,3.38,5.899,2,6.57-1.33c1.209-6.07-2.461-12.42-8.701-13.47c-12.35-2.08-16.539,17.4-8.08,16.3
			c0.951-0.125,1.759-0.752,2.11-1.64c0.63-1.61,0.8-3.84,2.32-4.83C233.273,76.936,234.523,76.946,235.87,77.719"/>
		<path id="svg_147" fill="none" stroke="#E9C6B2" stroke-width="2" d="M183.68,88.54c-6.126,3.34-11.296,7.836-15.51,13.49
			c-6.5,8.727-10.073,18.41-10.72,29.05c-0.92,15,4.61,30.18,15.83,39.67c12,10.15,28.621,12.95,42.97,6.06
			c4.779-2.293,8.373-4.633,10.779-7.02c11.921-11.86,16.82-26.357,14.701-43.49c-2.107-16.993-10.943-29.867-26.51-38.62"/>
		<path id="svg_148" fill="none" stroke="#695438" stroke-width="2" d="M215.221,87.679c-0.634-4.747-3.268-7.3-7.9-7.66
			c-3.914-0.307-8.407-0.33-13.48-0.07c-3.22,0.16-5.503,0.667-6.85,1.52c-2.307,1.447-3.41,3.804-3.311,7.07"/>
		<path id="svg_149" fill="none" stroke="#808E86" stroke-width="2" d="M215.221,87.679c0.129,9.22-2.221,16.24-12.311,17.1
			c-0.307,0.027-0.477,0.197-0.51,0.51c-0.521,5.35,0.07,11.61,5.229,13.87c3.974,1.74,6.92,0.687,8.841-3.16
			c0.912-1.847,2.34-2.423,4.279-1.73c0.166,0.06,0.326,0.143,0.48,0.25c1.76,1.22,2.393,2.796,1.899,4.73
			c-0.771,3.01-2.569,4.01-5.021,5.47c-0.328,0.2-0.529,0.56-0.529,0.95c0.047,6.447,0.09,13.053,0.13,19.82
			c0.013,3.167-0.489,5.817-1.51,7.95c-4.341,9.06-14.101,14.53-23.54,10.98c-8.507-3.2-12.767-9.633-12.78-19.3
			c-0.007-6.04,0.033-12.37,0.12-18.99c0.007-0.586-0.243-1.033-0.75-1.34c-3.17-1.92-5.81-5.12-4.12-8.97
			c0.79-1.79,2.78-2,4.44-1.62c0.596,0.133,1.098,0.526,1.369,1.07c1.371,2.76,2.86,4.76,6.4,4.4c7.86-0.78,8.59-7.77,7.83-14.29
			c-0.04-0.333-0.227-0.523-0.561-0.57c-8.27-1.24-11.649-8.37-10.93-16.27"/>
		<path id="svg_150" fill="none" stroke="#E88E74" stroke-width="2" d="M149.27,87.169c-2.14,0.5-3.46,0.93-3.96,1.29
			c-5.087,3.68-5.757,8.12-2.01,13.32c2.09,2.91,4.56,3.72,8.14,3.25c1.293-0.173,2.613-0.823,3.96-1.95
			c4.72-3.96,4.957-8.477,0.71-13.55"/>
		<path id="svg_151" fill="none" stroke="#85563E" stroke-width="2" d="M156.11,89.529c1.12-1.247,1.747-2.533,1.88-3.86
			c0.65-6.38-10.31-7.47-8.72,1.5"/>
		<path id="svg_152" fill="none" stroke="#9B574D" stroke-width="2" d="M156.11,89.529c-3.066,1.02-5.347,0.233-6.84-2.36"/>
		<path id="svg_153" fill="none" stroke="#E88E74" stroke-width="2" d="M249.04,89.429c-4.261,2.847-5.113,6.657-2.56,11.43
			c2.229,4.17,6.379,4.87,10.609,3.55c5.32-1.66,7.07-7.01,4.801-12.05c-1.273-2.833-3.541-4.577-6.801-5.23"/>
		<path id="svg_154" fill="none" stroke="#85563E" stroke-width="2" d="M255.09,87.129c2.551-6.72-7.119-8.75-8.029-2.22
			c-0.294,2.093,0.366,3.6,1.979,4.52"/>
		<path id="svg_155" fill="none" stroke="#9B574D" stroke-width="2" d="M255.09,87.129c-1.547,2.633-3.563,3.4-6.05,2.3"/>
		<path id="svg_156" fill="none" stroke="#807232" stroke-width="2" d="M55.65,55.08c1.489-0.135,2.582-1.523,2.44-3.1
			c-0.139-1.579-1.461-2.752-2.952-2.621c-0.003,0-0.005,0-0.008,0c-1.489,0.135-2.581,1.523-2.44,3.1
			c0.14,1.579,1.461,2.752,2.952,2.621C55.645,55.08,55.647,55.08,55.65,55.08"/>
		<path id="svg_157" fill="none" stroke="#808E86" stroke-width="2" d="M95.27,120.629c0-3.104-2.516-5.62-5.62-5.62l0,0
			c-3.104,0-5.62,2.517-5.62,5.62l0,0c0,3.104,2.516,5.62,5.62,5.62l0,0C92.754,126.25,95.27,123.733,95.27,120.629L95.27,120.629"
			/>
		<path id="svg_158" fill="none" stroke="#7F5648" stroke-width="2" d="M190.12,139.2c-2.567,3.286-3.36,6.67-2.38,10.15
			c1.4,4.96,6.09,8.4,11.02,8.26c6.12-0.18,9.953-3.34,11.5-9.48c0.44-1.727,0.507-5.667,0.2-11.82"/>
		<path id="svg_159" fill="none" stroke="#52362A" stroke-width="2" d="M210.46,136.31l0.021-5.63
			c0.002-0.32-0.254-0.582-0.574-0.585c-0.029,0-0.059,0.001-0.086,0.006c-7.58,1.066-14.146,4.1-19.7,9.1"/>
		<path id="svg_160" fill="none" stroke="#D16F66" stroke-width="2" d="M210.46,136.31c-4.38,0.31-8.51,3.21-11.97,5.63
			c-0.587,0.414-1.207,0.473-1.86,0.18l-6.51-2.92"/>
		<path id="svg_161" fill="none" stroke="#807232" stroke-width="2" d="M51.89,146.379c0-2.032-1.648-3.68-3.68-3.68h-0.14
			c-2.032,0-3.68,1.647-3.68,3.68v39.14c0,2.032,1.647,3.68,3.68,3.68h0.14c2.032,0,3.68-1.647,3.68-3.68V146.379"/>
		<path id="svg_162" fill="none" stroke="#807232" stroke-width="2" d="M77.58,177.489c-0.033-1.844-1.555-3.313-3.399-3.28
			c0,0-0.001,0-0.001,0h-0.4c-1.844,0.033-3.313,1.555-3.28,3.399c0,0,0,0,0,0.001l0.16,8.859c0.033,1.846,1.555,3.313,3.399,3.281
			c0,0,0,0,0.001,0h0.4c1.844-0.033,3.313-1.555,3.28-3.399c0-0.001,0-0.001,0-0.001L77.58,177.489"/>
		<path id="svg_163" fill="none" stroke="#85563E" stroke-width="2" d="M145.57,311.319c0-2.949-2.391-5.34-5.34-5.34
			s-5.34,2.391-5.34,5.34s2.391,5.341,5.34,5.341S145.57,314.269,145.57,311.319"/>
		<path id="svg_164" fill="none" stroke="#85563E" stroke-width="2" d="M128.42,311.439c0-2.928-2.373-5.3-5.3-5.3
			c-2.927,0-5.3,2.372-5.3,5.3s2.373,5.3,5.3,5.3C126.047,316.739,128.42,314.367,128.42,311.439"/>
		<path id="svg_165" fill="none" stroke="#85563E" stroke-width="2" d="M113.52,322.459c0-2.977-2.413-5.39-5.39-5.39l0,0
			c-2.977,0-5.39,2.413-5.39,5.39l0,0c0,2.977,2.413,5.391,5.39,5.391l0,0C111.107,327.85,113.52,325.436,113.52,322.459
			L113.52,322.459"/>
		<path id="svg_166" fill="none" stroke="#85563E" stroke-width="2" d="M257.859,316.91c2.84,0.23,5.342-2.034,5.591-5.061
			c0.246-3.025-1.853-5.666-4.69-5.9c-2.84-0.23-5.342,2.033-5.59,5.061C252.924,314.035,255.022,316.675,257.859,316.91"/>
		<path id="svg_167" fill="none" stroke="#85563E" stroke-width="2" d="M242.029,316.84c2.795-0.56,4.591-3.361,4.012-6.259
			c-0.001-0.001-0.001-0.001-0.001-0.001c-0.576-2.898-3.31-4.797-6.104-4.242c-0.002,0.001-0.004,0.002-0.006,0.002
			c-2.794,0.559-4.59,3.361-4.01,6.258v0.002c0.576,2.898,3.31,4.797,6.104,4.24C242.026,316.84,242.028,316.84,242.029,316.84"/>
		<path id="svg_168" fill="none" stroke="#85563E" stroke-width="2" d="M274.09,327.989c2.858-0.081,5.105-2.646,5.02-5.729
			c-0.082-3.086-2.467-5.527-5.327-5.451c-0.004,0-0.009,0-0.013,0.001c-2.857,0.081-5.104,2.646-5.02,5.729
			c0.082,3.086,2.468,5.527,5.328,5.451C274.082,327.99,274.086,327.99,274.09,327.989"/>
	</g>
	<path id="svg_61" fill="#001C0C" d="M298.67,346.189c4.14,0.04,9.86-1.109,12.39,2.939c1.027,1.646,1.15,3.374,0.37,5.181
		c-1.069,2.489-3.229,3.69-5.819,3.69c-78.026,0-154.234-0.021-228.62-0.061c-7.98-0.01-8.32-12.029,0.22-11.82
		c2.627,0.066,5.043,0.08,7.25,0.041c0.193-0.002,0.348-0.164,0.345-0.363c0-0.033-0.005-0.066-0.015-0.098
		c-0.887-2.967-1.67-5.957-2.35-8.97c-0.787-3.479-1.167-6.637-1.14-9.47c0.134-13.707,5.31-25.227,15.53-34.561
		c3.64-3.32,7.74-6,12.3-8.039c0.455-0.205,0.683-0.721,0.53-1.201c-1.5-4.619-2.79-9.24-3.46-13.959
		c-0.193-1.348-0.44-2.67-0.74-3.971c-0.08-0.333-0.29-0.506-0.63-0.52c-7.827-0.334-15.303-1.773-22.43-4.32
		c-18.086-6.447-30.82-18.914-38.2-37.4c-0.153-0.379-0.434-0.566-0.84-0.56c-2.64,0.046-5.18-0.214-7.62-0.78
		c-7.587-1.753-13.23-6.21-16.93-13.369c-1.96-3.791-2.4-7.141-2.39-11.44c0.06-23.98,0.11-48.63,0.15-73.95
		c0-2.47-1.47-3.27-2.54-5.17c-3.833-6.833-4.09-13.823-0.77-20.97c3.046-6.546,7.823-10.923,14.33-13.13
		c4.18-1.42,8.793-1.38,13.84,0.12c0.32,0.093,0.583,0.01,0.79-0.25c1.38-1.753,2.906-3.104,4.58-4.05
		c7.867-4.46,16.007-4.417,24.42,0.13c0.641,0.346,1.442,0.107,1.789-0.534c0.054-0.1,0.095-0.206,0.121-0.316
		c0.52-2.15,4.24-5.31,6.01-6.62c2.113-1.573,4.303-2.796,6.57-3.67c9.793-3.76,19.51-2.237,29.15,4.57
		c0.299,0.209,0.712,0.133,0.924-0.17c0.009-0.013,0.018-0.026,0.026-0.04l3.31-5.63c0.253-0.427,0.2-0.813-0.16-1.16
		c-3.26-3.133-5.893-6.37-7.9-9.71c-4.427-7.387-5.8-15.38-4.12-23.98c1.547-7.86,5.19-14.49,10.93-19.89
		c3.3-3.106,6.71-5.503,10.23-7.19c7.506-3.593,14.977-4.457,22.41-2.59c9.514,2.394,16.644,7.843,21.39,16.35
		c0.266,0.474,0.862,0.65,1.35,0.4c2.62-1.354,5.313-2.42,8.08-3.2c10.707-3.033,21.604-4.21,32.689-3.53
		c0.92,0.06,2.601,0.257,5.041,0.59c2.27,0.31,4.489,0.36,6.77,0.83c7.75,1.6,15.01,3.37,21.4,6.63c0.373,0.193,0.656,0.1,0.85-0.28
		c4.08-8.193,10.457-13.88,19.13-17.06c4.187-1.533,8.377-2.08,12.57-1.64c10.692,1.114,19.376,5.75,26.05,13.91
		c7.233,8.847,9.953,18.907,8.16,30.18c-1.28,8.04-6.28,15.67-12.62,20.47c-0.529,0.402-0.683,1.134-0.36,1.72
		c5.187,9.413,8.827,20.316,10.92,32.71c3.327,19.727,1.563,39.143-5.29,58.25c-0.446,1.24-0.949,2.443-1.51,3.61
		c-0.566,1.18-0.99,2.41-1.27,3.69c-0.067,0.326,0.066,0.661,0.34,0.85c7.24,4.993,13.996,11.256,20.27,18.79
		c7.721,9.281,13.277,19.764,16.67,31.451c1.254,4.326,2.134,9.02,2.641,14.08c1.434,14.433-1.271,27.84-8.11,40.219
		c-0.866,1.566-2.05,3.291-3.55,5.17c-1.76,2.201-3.43,4.471-5.4,6.48c-5.253,5.373-11.59,9.67-19.01,12.891
		c-4.22,1.826-8.5,3.27-12.84,4.33c-0.376,0.09-0.606,0.469-0.517,0.844c0.018,0.073,0.047,0.143,0.086,0.205
		c7.974,12.928,9.558,26.727,4.751,41.4c-0.261,0.79-0.88,1.45-1.07,2.2C298.007,345.946,298.19,346.184,298.67,346.189
		L298.67,346.189z M118.88,34.35c-1.52,8.146,0.65,15.2,6.51,21.16c2.913,2.307,6.356,4.344,10.33,6.11
		c-5.52,7.14-9.72,14.603-12.6,22.39c-0.12,0.313-0.033,0.554,0.26,0.72l3.7,2.11c5.06,3.907,8.323,8.427,9.79,13.56
		c3.207,11.24-0.023,20.617-9.69,28.13c-0.229,0.176-0.402,0.416-0.5,0.69c-0.16,0.46-0.204,0.963-0.13,1.51
		c0.91,6.45-2.62,12.89-7.69,16.92c-0.338,0.275-0.39,0.772-0.115,1.111c0.093,0.114,0.216,0.201,0.355,0.249
		c8.71,2.92,15.41,10.04,18.42,18.6c3.8,10.773,2.624,21.123-3.53,31.051c-0.6,0.973-1.777,2.286-3.53,3.939
		c-2.32,2.18-3.453,4.434-3.4,6.76c-5.934,12.26-9.157,25.117-9.67,38.57c-0.45,11.82,0.38,22.25,4.26,32.96
		c0.12,0.333,0.357,0.483,0.71,0.45l4.24-0.44c10.493,0.147,20.363,3.5,29.61,10.06c3.493,2.84,6.74,6.145,9.74,9.91l8.15,13.59
		c1.207,3.794,2.263,7.4,3.17,10.82c0.626,2.373,1.086,4.707,1.38,7c0.078,0.594,0.505,1.08,1.081,1.23
		c8.213,2.152,16.506,2.356,24.879,0.609c0.592-0.123,1.031-0.623,1.08-1.229c0.461-6.187,2.011-12.3,4.65-18.341
		c5.287-10.799,13.014-19.693,23.18-26.68c0.29-0.202,0.361-0.602,0.158-0.891c-0.031-0.045-0.066-0.084-0.107-0.119
		c-3.26-2.773-5.983-6.076-8.17-9.91c-2.827-4.893-4.438-9.316-4.83-13.27c-0.947-9.467,1.859-18.154,8.42-26.061
		c1.666-2.006,4.253-4.213,7.76-6.619c5.873-3.453,12.51-5.601,19.91-6.44l6.22-0.29c0.341-0.014,0.443-0.177,0.31-0.49
		l-3.149-7.289c-1.307-2.74-2.021-4.551-2.14-5.431c-0.78-5.62,6.91-8.46,9.449-3.101c2.434,5.141,4.891,10.363,7.371,15.67
		c0.316,0.688,1.086,1.051,1.829,0.861c3.62-0.947,6.94-2.188,9.96-3.721c2.971-1.5,7.35-1.641,9.17,1.51
		c1.46,2.547,1.107,4.86-1.06,6.939c-7.24,4.371-13.24,6.871-20.06,7.49c-2.207,0.201-7.457,0.26-15.75,0.181
		c-4.84-0.054-9.891,1.44-15.15,4.479c-4.713,3.18-7.877,7.324-9.49,12.43c-3.52,11.08,3.63,22.65,14.15,27.25
		c1.133,0.5,2.35,0.67,3.649,0.511c10.867-1.347,21.167,1.267,30.9,7.84c1.2,0.81,2.25,0.64,3.67,0.49
		c16.333-1.64,28.917-9.204,37.75-22.69c3.613-5.514,5.727-11.67,6.34-18.47c2.467-14.267,0.594-27.533-5.62-39.8
		c-4.606-9.087-10.55-17.213-17.83-24.381c-3.446-3.393-6.906-6.633-10.38-9.719c0.38-3.247,1.653-5.35,3.82-6.31
		c1.106-0.494,1.087-0.934-0.061-1.32c-3.053-1.034-5.713-2.63-7.979-4.79c4.007-9,6.6-18.914,7.78-29.74
		c1.753-16.066,0.37-31.066-4.15-45c-2.79-8.59-6.66-15.52-11.271-22.71c-0.967-1.507-0.673-2.624,0.881-3.35
		c2.9-1.35,5.92-2.42,8.39-4.52c7.207-6.12,9.804-14.046,7.79-23.78c-3.514-9.927-9.943-16.1-19.29-18.52
		c-6.953-1.793-13.366-0.32-19.239,4.42c-5.361,4.833-7.25,10.816-5.671,17.95c0.24,1.093-0.069,1.97-0.93,2.63
		c-1.49,1.13-2.99,0.23-4.181-0.8c-1.353-1.18-2.796-2.103-4.33-2.77c-1.272-0.406-2.229-1.19-2.869-2.35
		c-0.16-0.287-0.383-0.51-0.67-0.67c-3-1.64-5.004-2.64-6.01-3c-25.627-9.187-50.44-7.364-74.44,5.47
		c-0.347-1.813-0.66-3.47-0.94-4.97c-0.9-4.773-3.023-8.59-6.37-11.45c-6.26-5.047-13.097-6.43-20.51-4.15
		C127.057,18.02,121.167,24.436,118.88,34.35L118.88,34.35z M112.32,93.979c-0.28-1.84-0.34-3.57-1.11-5.31
		c-3.5-7.83-12.73-11.93-20.83-8.51c-6.38,2.69-11.2,9.2-9.06,16.19c0.51,1.69-0.21,3.22-1.66,4.09c-2.14,1.267-4.52,1.467-7.14,0.6
		c-1.513-0.5-2.443-1.54-2.79-3.12c-1.046-4.8-4.173-7.76-9.38-8.88c-4.14-0.89-9.37,1.14-11.76,4.87
		c-1.43,2.23-2.51,6.92-6.46,4.24c-2.56-1.74-5.62-3.41-8.78-2.84c-4.607,0.833-7.69,3.207-9.25,7.12
		c-2.93,7.39,2.06,14.53,10.01,14.1c3.38-0.18,5.39-2.72,7.14-5.25c0.193-0.28,0.46-0.443,0.8-0.49c3.627-0.487,6.07,0.73,7.33,3.65
		c0.83,1.93,0.64,4.11,1.93,5.84c1.967,2.64,4.637,3.963,8.01,3.97c1.37,0,2.59-1.08,3.66-1.83c2.84-1.98,6.1-0.38,7.43,2.54
		c0.193,0.42,0.223,0.85,0.09,1.29c-0.57,1.83-1.81,3.18-2.02,5.13c-0.233,2.087,0.313,3.954,1.64,5.6
		c2.393,2.953,5.486,4.043,9.28,3.27c3.47-0.71,4.87-3.69,6.11-6.61c0.293-0.693,0.968-1.148,1.72-1.16
		c2.067-0.047,4.07,0.17,6.01,0.65c0.72,0.18,1.253,0.593,1.6,1.24c2.92,5.473,7.28,7.316,13.08,5.53c5.52-1.7,8.5-8.21,4.81-13.06
		c-1.79-2.36-0.94-5.27,1.6-6.62c2.3-1.21,5.15-1.61,7.09-3.43c4.8-4.5,5.42-11.96,1.26-17.03c-2.3-2.8-5.54-4.513-9.72-5.14
		C112.593,94.56,112.38,94.346,112.32,93.979L112.32,93.979z M36.18,128.029l-6.78,0.04c-0.26,0-0.393,0.133-0.4,0.4
		c-0.053,23.727-0.083,47.293-0.09,70.701c-0.01,6.57,5.86,10.939,12.24,11.01c6.36,0.073,12.797,0.083,19.31,0.029
		c6.573,0.101,13.23,0.121,19.97,0.061c9.18-0.08,13.803-4.697,13.87-13.85c0.027-3.367,0-6.83-0.08-10.391l-0.16-35.3
		c0-0.407-0.187-0.69-0.56-0.85c-1.533-0.646-2.927-1.543-4.18-2.69c-0.347-0.32-0.687-0.31-1.02,0.03
		c-3.51,3.58-7.6,4.92-12.52,5.13c-0.58,0.02-0.664,0.236-0.25,0.65c1.24,1.233,1.917,2.736,2.03,4.51l-0.2,5.55
		c-0.006,0.31-0.123,0.611-0.33,0.85c-1.39,1.64-4.27,1.91-5.73,0.21c-1.2-1.39-0.75-4.71-0.72-6.59
		c-0.247-3.013,0.81-4.65,3.17-4.91c1.013-0.113,1.013-0.227,0-0.34c-7.94-0.88-13.473-5.077-16.6-12.59
		c-0.37-0.89-0.39-2.02-0.73-2.93c-0.126-0.327-0.363-0.51-0.71-0.55c-6.64-0.753-11.493-4.003-14.56-9.75
		c-0.16-0.303-0.536-0.418-0.838-0.258c-0.021,0.012-0.042,0.024-0.062,0.038C38.896,127.2,37.54,127.796,36.18,128.029z
		 M106.05,184.92l-0.13,12.439c-0.004,0.463,0.336,0.854,0.79,0.91c2.653,0.32,5.31,0.243,7.97-0.23
		c4.273-0.753,7.417-3.076,9.43-6.97c2.62-4.946,3.423-10.163,2.41-15.65c-1.34-7.307-5.17-12.197-11.49-14.67
		c-2.72-1.067-5.537-1.39-8.45-0.97c-0.427,0.06-0.64,0.307-0.64,0.74L106.05,184.92L106.05,184.92z M103.13,211.719
		c-3.52,4.9-7.807,8.157-12.86,9.771c-3.273,1.053-8.153,1.477-14.64,1.27c-6.033-0.193-12.013-0.293-17.94-0.301
		c-0.254,0.004-0.458,0.211-0.455,0.465c0,0.05,0.009,0.1,0.025,0.146c0.973,2.66,2.413,5.24,4.32,7.74
		c10.307,13.507,24.583,20.866,42.83,22.08c0.363,0.027,0.68-0.245,0.708-0.608c0.001-0.021,0.002-0.041,0.002-0.063
		c-0.133-11.859,1.657-23.252,5.37-34.18c0.946-2.786,1.92-5.463,2.92-8.029c0.122-0.32-0.039-0.678-0.359-0.801
		c-0.077-0.029-0.159-0.043-0.241-0.039l-7.22,0.26c-0.327,0.014-0.603,0.133-0.83,0.359
		C104.167,210.39,103.624,211.033,103.13,211.719z M113.31,346.149l38.41-0.08l8.33-0.21l6.17,0.061
		c0.353,0.006,0.543-0.167,0.57-0.521c0.427-5.853-0.133-11.724-1.68-17.61c-1.793-9.426-6.296-17.479-13.51-24.16
		c-15.73-14.569-40.1-14.02-52.56,4.73c-7.41,11.141-7.59,25.23-1.15,36.78c0.329,0.581,0.942,0.943,1.61,0.95L113.31,346.149
		L113.31,346.149z M231.2,346.069L269.79,346l14.08,0.09c0.248-0.001,0.479-0.129,0.61-0.34c5.492-9.054,6.766-18.607,3.819-28.66
		c-3.04-10.34-9.743-17.53-20.11-21.57c-13-5.061-27.39-0.15-36.67,9.641c-10.666,11.26-15.199,24.746-13.6,40.459
		c0.036,0.336,0.318,0.587,0.65,0.58L231.2,346.069z"/>
	<path id="svg_60" fill="#FFFFFF" d="M157.06,19.25c-3.24-1.146-5.57-1.73-6.99-1.75c-9.51-0.14-19.98,4.79-23.85,13.7
		c-0.687,1.586-1.344,3.196-1.97,4.83c-0.414,1.087-1.146,1.377-2.2,0.87c-1.173-0.56-2.23-1.41-3.17-2.55
		c2.287-9.914,8.177-16.33,17.67-19.25C143.963,12.819,150.8,14.203,157.06,19.25z"/>
	<path id="svg_59" fill="#FFFFFF" d="M302,33.31c-0.406,1.787-2.017,3.336-4.83,4.65c-1.934-5.96-4.72-10.557-8.359-13.79
		c-5.747-5.1-12.523-7.2-20.33-6.3c-0.613,0.073-1.431,0.316-2.45,0.73c-0.88,0.36-1.733,0.563-2.56,0.61
		c5.873-4.74,12.286-6.213,19.239-4.42C292.057,17.209,298.486,23.383,302,33.31L302,33.31z"/>
	<path id="svg_58" fill="#001C0C" d="M82.98,25.16c1.07,0.7,2.31,1.46,3.61,1.58c1.207,0.107,2.26,0.577,3.16,1.41
		c0.199,0.187,0.321,0.444,0.34,0.72c0.15,2.01-1.29,3.85-3.32,4.04c-1.487,0.146-2.867,0.866-4.14,2.16
		c-0.26,0.267-0.413,0.58-0.46,0.94c-0.26,2.01-0.51,6.11-3.35,6.29c-1.198,0.076-2.284-0.702-2.6-1.86
		c-0.414-1.507-0.737-2.98-0.97-4.42c-0.45-2.75-4.27-3.28-6.41-3.87c-0.822-0.231-1.47-0.868-1.72-1.69
		c-0.54-1.79,0.43-3.52,2.31-3.72c5.43-0.58,5.9-3.24,6.65-7.9c0.179-1.109,1.039-1.988,2.15-2.2c1.73-0.32,3.13,0.91,3.27,2.59
		c0.16,1.827,0.477,3.563,0.95,5.21C82.534,24.73,82.722,24.985,82.98,25.16z"/>
	<path id="svg_57" fill="#D28C64" d="M157.06,19.25c3.347,2.86,5.47,6.677,6.37,11.45c0.28,1.5,0.593,3.156,0.94,4.97l-8.24,5.38
		c0.093-5.486-1.823-9.287-5.75-11.4c-2.58-1.387-5.417-1.83-8.51-1.33c-9.78,1.57-15.24,14.97-7.46,22.15
		c-3.287,0.787-6.293,2.467-9.02,5.04c-5.86-5.96-8.03-13.013-6.51-21.16c0.94,1.14,1.997,1.99,3.17,2.55
		c1.054,0.507,1.787,0.217,2.2-0.87c0.626-1.633,1.283-3.243,1.97-4.83c3.87-8.91,14.34-13.84,23.85-13.7
		C151.49,17.52,153.82,18.103,157.06,19.25z"/>
	<path id="svg_56" fill="#D28C64" d="M297.17,37.959c-1.12,8.1-6.07,13.217-14.85,15.35c-0.087,0.02-0.184-0.164-0.291-0.55
		c11.83-6.23,7.811-23.05-5.01-24.55c-4.039-0.473-7.406,0.733-10.1,3.62c-2.641,2.833-3.537,5.887-2.689,9.16
		c0.732,2.833,2.373,3.79,4.92,2.87c0.513,0.854,1.513,1.41,3,1.67c1.066,0.18,2.127,0.457,3.18,0.83
		c1.1,0.394,2.279,0.613,3.54,0.66c-1.181,0.88-1.887,1.807-2.12,2.78c-0.08,0.333-0.029,0.644,0.15,0.93
		c0.72,1.16,1.779,2,3.18,2.52c0.993,2.02,2.303,3.657,3.93,4.91c1.063,0.82,1.263,2.343,0.447,3.402
		c-0.137,0.177-0.297,0.335-0.477,0.468c-0.461,0.34-0.987,0.577-1.58,0.71c-0.313,0.067-0.471,0.26-0.471,0.58
		c0,0.093-0.029,0.18-0.09,0.26c-0.174,0.24-0.413,0.403-0.72,0.49c-1.087,0.3-2.106,0.777-3.06,1.43
		c-0.367,0.253-0.754,0.477-1.16,0.67c-1.34,0.62-1.23,2.19-0.461,3.21c0.874,1.14,1.577,2.35,2.11,3.63
		c1.813,4.367,3.523,8.78,5.13,13.24c6.62,18.39,6.051,38.5,1.92,57.25c-0.906,4.1-2.16,8.077-3.76,11.93
		c-0.469,1.134,0.066,2.437,1.2,2.92l9.54,4.06c2.267,2.16,4.927,3.756,7.979,4.79c1.147,0.386,1.167,0.826,0.061,1.32
		c-2.167,0.96-3.44,3.063-3.82,6.31c-2.26-2.307-4.12-2.797-5.579-1.47c-1.19,1.1-1.221,2.91-0.011,3.97
		c10.58,9.209,19.561,18.129,26.11,30.42c3,5.626,5.029,10.85,6.09,15.67c0.46,2.105,0.81,3.513,1.05,4.219
		c-2.173,0.975-3.276,2.828-3.31,5.561c-0.087,7.461-1.724,14.004-4.91,19.631c-4.627,8.18-11.027,14.389-19.2,18.629
		c-11.101,5.771-28.07,7.67-39.75,0.83c-4.193-2.453-6.807-5.913-7.84-10.379c-0.9-3.881-0.03-9.671-0.82-13.99
		c-0.26-1.453-1.036-3.467-2.33-6.041c7.294-0.025,14.753-0.039,22.38-0.039c5.233,0,10.084-0.75,14.551-2.25
		c5.193-1.74,8.989-5.197,11.39-10.371c2.166-2.08,2.52-4.393,1.06-6.939c-1.82-3.15-6.199-3.01-9.17-1.51
		c-3.02,1.533-6.34,2.773-9.96,3.72c-0.743,0.19-1.513-0.172-1.83-0.86c-2.479-5.307-4.937-10.529-7.37-15.67
		c-2.539-5.359-10.229-2.52-9.449,3.101c0.119,0.88,0.833,2.69,2.14,5.43c-5.267,0.874-6.394,3.563-3.38,8.07
		c-7.4,0.84-14.037,2.987-19.91,6.44c-9.387-13.021-22.12-19.844-38.2-20.471c-4.894-0.187-9.53,0.391-13.909,1.73
		c-18.261,5.58-31.391,19.449-36.011,37.729c-3.54,13.993-1.013,27.649,7.58,40.97c-9.247-6.56-19.117-9.912-29.61-10.06
		c-2.08-6.2-3.37-12.521-3.87-18.96c-1.32-17.127,1.4-33.594,8.16-49.4c0.424-0.992,0.134-2.146-0.71-2.82
		c-0.527-0.42-1.567-0.539-3.12-0.359c-0.053-2.326,1.08-4.58,3.4-6.76c1.753-1.653,2.93-2.967,3.53-3.939
		c6.154-9.928,7.33-20.277,3.53-31.051c-3.01-8.56-9.71-15.68-18.42-18.6c-0.413-0.143-0.631-0.592-0.489-1.004
		c0.048-0.139,0.134-0.263,0.249-0.355c5.07-4.03,8.6-10.47,7.69-16.92c-0.073-0.547-0.03-1.05,0.13-1.51
		c0.098-0.274,0.271-0.514,0.5-0.69c9.667-7.513,12.896-16.89,9.69-28.13c-1.467-5.133-4.73-9.653-9.79-13.56
		c2.126-5.46,3.733-9.146,4.82-11.06c11.98-21.06,29.144-35.183,51.491-42.37c6.673-2.147,13.066-3.374,19.18-3.68
		c15.399-0.78,30.104,2.73,44.109,10.53c0.496,0.278,1.123,0.104,1.398-0.387c0.011-0.021,0.021-0.042,0.031-0.063
		c0.534-1.1,0.617-2.297,0.25-3.59c1.534,0.667,2.977,1.59,4.33,2.77c1.19,1.03,2.69,1.93,4.181,0.8c0.86-0.66,1.17-1.537,0.93-2.63
		c-1.58-7.134,0.31-13.117,5.67-17.95c0.827-0.047,1.681-0.25,2.56-0.61c1.021-0.414,1.838-0.657,2.451-0.73
		c7.807-0.9,14.583,1.2,20.33,6.3C292.45,27.403,295.236,32,297.17,37.959L297.17,37.959z M168.76,59.56
		c4.89-4.63,9.06,5.28,12.62,1.08c2.841-3.35,1.13-7.47-2.08-9.72c-4.56-3.207-9.263-3.183-14.11,0.07
		c-3.35,2.25-5.59,8.71-0.15,10.12C166.5,61.489,167.76,60.5,168.76,59.56z M241.99,53.279c-5.02-5.65-15.18-5.05-18.74,1.95
		c-1.391,2.72-0.63,5.99,2.43,7.02c1.109,0.368,2.33,0.083,3.16-0.74c2.554-2.546,5.316-2.56,8.29-0.04c1.899,1.62,4.56,2,5.96-0.57
		C244.517,58.259,244.15,55.719,241.99,53.279L241.99,53.279z M168.79,80.989c0.12-2.7,2.55-5.03,5.16-3.39
		c1.67,1.05,1.75,3.4,2.62,5.05c1.45,2.73,5.3,1.57,5.98-1.02c1.86-7.16-4.03-14.84-11.8-13.87c-6.22,0.78-11.09,8.19-8.78,14.29
		C163.39,85.799,168.6,85.009,168.79,80.989z M235.87,77.719c0.78,0.444,1.283,1.252,1.34,2.15c0.06,1,0.29,1.93,0.69,2.79
		c1.57,3.38,5.899,2,6.57-1.33c1.209-6.07-2.461-12.42-8.701-13.47c-12.35-2.08-16.539,17.4-8.08,16.3
		c0.951-0.125,1.759-0.752,2.11-1.64c0.63-1.61,0.8-3.84,2.32-4.83C233.273,76.936,234.523,76.946,235.87,77.719L235.87,77.719z
		 M183.68,88.54c-6.126,3.34-11.296,7.836-15.51,13.49c-6.5,8.727-10.073,18.41-10.72,29.05c-0.92,15,4.61,30.18,15.83,39.67
		c12,10.15,28.62,12.95,42.97,6.06c4.78-2.293,8.373-4.633,10.78-7.02c11.92-11.86,16.819-26.357,14.7-43.49
		c-2.107-16.993-10.943-29.867-26.51-38.62c-0.634-4.747-3.268-7.3-7.9-7.66c-3.914-0.307-8.406-0.33-13.48-0.07
		c-3.22,0.16-5.503,0.667-6.85,1.52C184.684,82.916,183.58,85.273,183.68,88.54L183.68,88.54z M149.27,87.169
		c-2.14,0.5-3.46,0.93-3.96,1.29c-5.087,3.68-5.757,8.12-2.01,13.32c2.09,2.91,4.56,3.72,8.14,3.25
		c1.293-0.173,2.613-0.823,3.96-1.95c4.72-3.96,4.957-8.477,0.71-13.55c1.12-1.247,1.747-2.533,1.88-3.86
		C158.64,79.29,147.68,78.2,149.27,87.169z M249.04,89.429c-4.26,2.847-5.113,6.657-2.56,11.43c2.229,4.17,6.379,4.87,10.609,3.55
		c5.32-1.66,7.07-7.01,4.801-12.05c-1.273-2.833-3.541-4.577-6.801-5.23c2.551-6.72-7.119-8.75-8.029-2.22
		C246.767,87.003,247.427,88.509,249.04,89.429L249.04,89.429z"/>
	<path id="svg_55" fill="#FFFFFF" d="M248.359,36.219c0.367,1.293,0.284,2.49-0.25,3.59c-0.24,0.509-0.852,0.726-1.365,0.483
		c-0.021-0.01-0.043-0.021-0.064-0.033c-14.006-7.8-28.709-11.31-44.109-10.53c-6.113,0.307-12.507,1.533-19.18,3.68
		c-22.347,7.187-39.511,21.31-51.491,42.37c-1.086,1.914-2.693,5.6-4.82,11.06l-3.7-2.11c-0.293-0.167-0.38-0.407-0.26-0.72
		c2.88-7.787,7.08-15.25,12.6-22.39l6.98-8.07l9.92-9.59l3.51-2.91l8.24-5.38c24-12.833,48.813-14.657,74.44-5.47
		c1.006,0.36,3.01,1.36,6.01,3c0.286,0.16,0.51,0.383,0.67,0.67C246.13,35.029,247.087,35.813,248.359,36.219L248.359,36.219z"/>
	<path id="svg_54" fill="#001C0C" d="M156.13,41.049l-3.51,2.91c-1.62,0.233-2.487-0.19-2.6-1.27c-0.39-3.82-0.84-7.4-5.54-7.63
		c-6.08-0.29-9.5,7.45-4.11,11.57c1.17,0.9,3.42,1.99,3.19,3.68c-2.56,3.187-5.61,3.24-9.15,0.16c-7.78-7.18-2.32-20.58,7.46-22.15
		c3.093-0.5,5.93-0.057,8.51,1.33C154.307,31.763,156.223,35.563,156.13,41.049z"/>
	<path id="svg_53" fill="#001C0C" d="M282.029,52.759l-1.949,0.49c-1.4-0.52-2.46-1.36-3.18-2.52c-0.18-0.287-0.23-0.597-0.15-0.93
		c0.233-0.973,0.939-1.9,2.12-2.78c1.819-1.293,2.81-2.977,2.97-5.05c0.471-6.32-8.51-9.68-10.96-3.68
		c-0.67,1.62-0.159,3.71-1.729,5.57c-2.547,0.92-4.188-0.037-4.92-2.87c-0.848-3.273,0.049-6.327,2.689-9.16
		c2.693-2.887,6.061-4.093,10.1-3.62C289.84,29.709,293.859,46.529,282.029,52.759z"/>
	<path id="svg_52" fill="#A34F48" d="M302,33.31c2.014,9.733-0.583,17.66-7.79,23.78c-2.47,2.1-5.489,3.17-8.39,4.52
		c-1.554,0.727-1.848,1.843-0.881,3.35c4.61,7.19,8.48,14.12,11.271,22.71c4.52,13.934,5.903,28.934,4.15,45
		c-1.181,10.827-3.774,20.74-7.78,29.74l-9.54-4.06c-1.134-0.484-1.669-1.786-1.2-2.92c1.6-3.853,2.854-7.83,3.76-11.93
		c4.131-18.75,4.7-38.86-1.92-57.25c-1.606-4.46-3.316-8.874-5.13-13.24c-0.533-1.28-1.236-2.49-2.11-3.63
		c-0.77-1.02-0.879-2.59,0.461-3.21c0.406-0.193,0.793-0.417,1.16-0.67c0.953-0.653,1.973-1.13,3.06-1.43
		c0.307-0.086,0.546-0.25,0.72-0.49c0.061-0.08,0.09-0.167,0.09-0.26c0-0.32,0.156-0.513,0.471-0.58
		c0.593-0.134,1.119-0.37,1.58-0.71c1.074-0.794,1.298-2.313,0.499-3.391c-0.134-0.181-0.292-0.342-0.47-0.479
		c-1.627-1.253-2.937-2.89-3.93-4.91l1.949-0.49c0.107,0.387,0.204,0.57,0.291,0.55c8.779-2.133,13.729-7.25,14.85-15.35
		C299.983,36.646,301.594,35.096,302,33.31L302,33.31z"/>
	<path id="svg_51" fill="#FE8F83" d="M152.62,43.959l-9.92,9.59c-0.02-0.52,0.163-1.03,0.55-1.53c0.24-0.313,0.376-0.577,0.41-0.79
		c0.046-0.333,0.013-0.64-0.1-0.92c0.23-1.69-2.02-2.78-3.19-3.68c-5.39-4.12-1.97-11.86,4.11-11.57c4.7,0.23,5.15,3.81,5.54,7.63
		C150.133,43.77,151,44.193,152.62,43.959z"/>
	<path id="svg_50" fill="#FE8F83" d="M278.87,47.02c-1.261-0.047-2.44-0.267-3.54-0.66c-1.053-0.373-2.113-0.65-3.18-0.83
		c-1.487-0.26-2.487-0.816-3-1.67c1.57-1.86,1.06-3.95,1.729-5.57c2.45-6,11.431-2.64,10.96,3.68
		C281.68,44.043,280.689,45.726,278.87,47.02z"/>
	<path id="svg_49" fill="#001C0C" d="M55.98,62.629c-5.532,0.292-10.259-4.071-10.559-9.746c0-0.005,0-0.01-0.001-0.014
		c-0.297-5.675,3.947-10.511,9.479-10.8c0,0,0.001,0,0.001,0c5.532-0.292,10.259,4.071,10.56,9.746c0,0.004,0,0.009,0,0.014
		c0.297,5.675-3.947,10.51-9.479,10.8C55.981,62.629,55.98,62.629,55.98,62.629z M55.65,55.08c1.489-0.135,2.582-1.523,2.44-3.1
		c-0.139-1.579-1.461-2.752-2.952-2.621c-0.003,0-0.005,0-0.008,0c-1.489,0.135-2.581,1.523-2.44,3.1
		c0.14,1.579,1.461,2.752,2.952,2.621C55.645,55.08,55.647,55.08,55.65,55.08z"/>
	<path id="svg_48" fill="#001C0C" d="M181.38,60.64c-3.56,4.2-7.73-5.71-12.62-1.08c-1,0.94-2.26,1.93-3.72,1.55
		c-5.44-1.41-3.2-7.87,0.15-10.12c4.847-3.253,9.55-3.276,14.11-0.07C182.51,53.169,184.221,57.29,181.38,60.64z"/>
	
		<ellipse id="svg_47" transform="matrix(0.996 -0.0889 0.0889 0.996 -4.424 5.1315)" fill="#FFC858" cx="55.384" cy="52.22" rx="2.71" ry="2.87"/>
	<path id="svg_46" fill="#001C0C" d="M223.25,55.229c3.561-7,13.721-7.6,18.74-1.95c2.16,2.44,2.526,4.98,1.1,7.62
		c-1.4,2.57-4.06,2.19-5.96,0.57c-2.974-2.52-5.736-2.506-8.29,0.04c-0.83,0.823-2.051,1.108-3.16,0.74
		C222.62,61.219,221.859,57.95,223.25,55.229z"/>
	<path id="svg_45" fill="#A34F48" d="M143.56,50.31c0.113,0.28,0.146,0.586,0.1,0.92c-0.034,0.213-0.17,0.477-0.41,0.79
		c-0.387,0.5-0.57,1.01-0.55,1.53l-6.98,8.07c-3.974-1.767-7.417-3.804-10.33-6.11c2.727-2.573,5.733-4.253,9.02-5.04
		C137.95,53.549,141,53.496,143.56,50.31z"/>
	<path id="svg_44" fill="#001C0C" d="M334.65,87.06c-1.947-1.213-3.938-1.977-5.971-2.29c-1.37-0.21-2.415-1.337-2.52-2.72
		c-0.32-4.26,8.229-2.83,9.189-7.92c0.261-1.39,0.69-2.49,0.75-3.95c0.04-0.84,0.384-1.62,1.03-2.34c1.94-2.12,5.18-0.08,5.24,2.41
		c0.053,1.973,0.514,3.896,1.38,5.77c0.104,0.233,0.288,0.421,0.52,0.53c0.394,0.187,0.761,0.41,1.101,0.67
		c0.26,0.2,0.547,0.333,0.859,0.4c1.79,0.4,5.12,1.38,5.69,3.31c1.06,3.58-4.4,4.521-6.65,4.93c-0.333,0.06-0.613,0.217-0.84,0.47
		l-1.59,1.76c-0.206,0.22-0.323,0.48-0.35,0.78c-0.094,1.066-0.17,2.137-0.23,3.21c-0.05,0.9-0.52,1.56-1.01,2.31
		c-0.187,0.287-0.44,0.497-0.76,0.63c-4.46,1.79-5.03-3.83-5.101-6.65C335.377,87.832,335.099,87.339,334.65,87.06L334.65,87.06z"/>
	<path id="svg_43" fill="#001C0C" d="M173.95,77.6c-2.61-1.64-5.04,0.69-5.16,3.39c-0.19,4.02-5.4,4.81-6.82,1.06
		c-2.31-6.1,2.56-13.51,8.78-14.29c7.77-0.97,13.66,6.71,11.8,13.87c-0.68,2.59-4.53,3.75-5.98,1.02
		C175.7,81,175.62,78.649,173.95,77.6L173.95,77.6z"/>
	<path id="svg_42" fill="#001C0C" d="M235.87,77.719c-1.347-0.773-2.597-0.783-3.75-0.03c-1.521,0.99-1.69,3.22-2.32,4.83
		c-0.352,0.888-1.159,1.516-2.11,1.64c-8.459,1.1-4.27-18.38,8.08-16.3c6.24,1.05,9.91,7.4,8.7,13.47c-0.67,3.33-5,4.71-6.569,1.33
		c-0.4-0.86-0.631-1.79-0.69-2.79C237.153,78.971,236.649,78.163,235.87,77.719z"/>
	<path id="svg_41" fill="#FFFFFF" d="M112.96,94.62c4.18,0.626,7.42,2.34,9.72,5.14c4.16,5.07,3.54,12.53-1.26,17.03
		c-1.94,1.82-4.79,2.22-7.09,3.43c-2.54,1.35-3.39,4.26-1.6,6.62c3.69,4.85,0.71,11.36-4.81,13.06
		c-5.8,1.787-10.16-0.057-13.08-5.53c-0.347-0.647-0.88-1.06-1.6-1.24c-1.94-0.48-3.943-0.697-6.01-0.65
		c-0.752,0.012-1.427,0.467-1.72,1.16c-1.24,2.92-2.64,5.9-6.11,6.61c-3.793,0.773-6.887-0.317-9.28-3.27
		c-1.327-1.647-1.874-3.513-1.64-5.6c0.21-1.95,1.45-3.3,2.02-5.13c0.133-0.44,0.104-0.87-0.09-1.29c-1.33-2.92-4.59-4.52-7.43-2.54
		c-1.07,0.75-2.29,1.83-3.66,1.83c-3.373-0.007-6.043-1.33-8.01-3.97c-1.29-1.73-1.1-3.91-1.93-5.84
		c-1.26-2.92-3.703-4.137-7.33-3.65c-0.34,0.046-0.606,0.21-0.8,0.49c-1.75,2.53-3.76,5.07-7.14,5.25
		c-7.95,0.43-12.94-6.71-10.01-14.1c1.56-3.913,4.643-6.287,9.25-7.12c3.16-0.57,6.22,1.1,8.78,2.84c3.95,2.68,5.03-2.01,6.46-4.24
		c2.39-3.73,7.62-5.76,11.76-4.87c5.207,1.12,8.333,4.08,9.38,8.88c0.347,1.58,1.277,2.62,2.79,3.12c2.62,0.867,5,0.667,7.14-0.6
		c1.45-0.87,2.17-2.4,1.66-4.09c-2.14-6.99,2.68-13.5,9.06-16.19c8.1-3.42,17.33,0.68,20.83,8.51c0.77,1.74,0.83,3.47,1.11,5.31
		C112.38,94.346,112.593,94.56,112.96,94.62L112.96,94.62z M95.27,120.629c0-3.104-2.516-5.62-5.62-5.62l0,0
		c-3.104,0-5.62,2.517-5.62,5.62l0,0c0,3.104,2.516,5.62,5.62,5.62l0,0C92.754,126.25,95.27,123.733,95.27,120.629L95.27,120.629z"
		/>
	<path id="svg_40" fill="#001C0C" d="M215.221,87.679c0.129,9.22-2.221,16.24-12.311,17.1c-0.307,0.027-0.477,0.197-0.51,0.51
		c-0.521,5.35,0.07,11.61,5.229,13.87c3.974,1.74,6.92,0.687,8.841-3.16c0.912-1.847,2.34-2.423,4.279-1.73
		c0.166,0.06,0.326,0.143,0.48,0.25c1.76,1.22,2.393,2.796,1.899,4.73c-0.771,3.01-2.569,4.01-5.021,5.47
		c-0.328,0.2-0.529,0.56-0.529,0.95c0.047,6.447,0.09,13.053,0.13,19.82c0.013,3.167-0.489,5.817-1.51,7.95
		c-4.341,9.06-14.101,14.53-23.54,10.98c-8.507-3.2-12.767-9.633-12.78-19.3c-0.007-6.04,0.033-12.37,0.12-18.99
		c0.007-0.586-0.243-1.033-0.75-1.34c-3.17-1.92-5.81-5.12-4.12-8.97c0.79-1.79,2.78-2,4.44-1.62
		c0.596,0.133,1.098,0.526,1.369,1.07c1.371,2.76,2.86,4.76,6.4,4.4c7.86-0.78,8.59-7.77,7.83-14.29
		c-0.04-0.333-0.227-0.523-0.561-0.57c-8.27-1.24-11.649-8.37-10.93-16.27c-0.1-3.267,1.004-5.624,3.311-7.07
		c1.347-0.853,3.63-1.36,6.85-1.52c5.073-0.26,9.566-0.237,13.48,0.07C211.953,80.379,214.587,82.933,215.221,87.679L215.221,87.679
		z M190.12,139.2c-2.567,3.286-3.36,6.67-2.38,10.15c1.4,4.96,6.09,8.4,11.02,8.26c6.12-0.18,9.953-3.34,11.5-9.48
		c0.44-1.727,0.507-5.667,0.2-11.82l0.021-5.63c0.002-0.32-0.254-0.582-0.574-0.585c-0.029,0-0.059,0.001-0.086,0.006
		C202.24,131.166,195.674,134.2,190.12,139.2z"/>
	<path id="svg_39" fill="#371F17" d="M156.11,89.529c-3.066,1.02-5.347,0.233-6.84-2.36c-1.59-8.97,9.37-7.88,8.72-1.5
		C157.856,86.996,157.23,88.283,156.11,89.529z"/>
	<path id="svg_38" fill="#371F17" d="M255.09,87.129c-1.547,2.633-3.563,3.4-6.05,2.3c-1.613-0.92-2.273-2.426-1.979-4.52
		C247.971,78.379,257.641,80.41,255.09,87.129z"/>
	<path id="svg_37" fill="#FE8F83" d="M149.27,87.169c1.493,2.593,3.773,3.38,6.84,2.36c4.247,5.074,4.01,9.59-0.71,13.55
		c-1.347,1.126-2.667,1.776-3.96,1.95c-3.58,0.47-6.05-0.34-8.14-3.25c-3.747-5.2-3.077-9.64,2.01-13.32
		C145.81,88.1,147.13,87.669,149.27,87.169L149.27,87.169z"/>
	<path id="svg_36" fill="#FE8F83" d="M255.09,87.129c3.26,0.653,5.527,2.396,6.801,5.23c2.27,5.04,0.52,10.39-4.801,12.05
		c-4.23,1.32-8.38,0.62-10.609-3.55c-2.554-4.773-1.701-8.583,2.56-11.43C251.527,90.529,253.543,89.763,255.09,87.129z"/>
	<path id="svg_35" fill="#FFFFFF" d="M183.68,88.54c-0.72,7.9,2.66,15.03,10.93,16.27c0.334,0.046,0.521,0.237,0.561,0.57
		c0.76,6.52,0.03,13.51-7.83,14.29c-3.54,0.36-5.029-1.64-6.4-4.4c-0.271-0.544-0.773-0.937-1.369-1.07
		c-1.66-0.38-3.65-0.17-4.44,1.62c-1.69,3.85,0.95,7.05,4.12,8.97c0.507,0.307,0.757,0.753,0.75,1.34
		c-0.087,6.62-0.127,12.95-0.12,18.99c0.014,9.667,4.273,16.1,12.78,19.3c9.439,3.55,19.199-1.92,23.54-10.98
		c1.02-2.133,1.522-4.783,1.51-7.95c-0.04-6.767-0.083-13.373-0.13-19.82c0-0.391,0.201-0.75,0.529-0.95
		c2.451-1.46,4.25-2.46,5.021-5.47c0.493-1.934-0.14-3.51-1.899-4.73c-0.154-0.107-0.314-0.19-0.48-0.25
		c-1.939-0.693-3.367-0.117-4.28,1.73c-1.92,3.847-4.866,4.9-8.84,3.16c-5.16-2.26-5.75-8.52-5.229-13.87
		c0.033-0.313,0.203-0.483,0.51-0.51c10.09-0.86,12.439-7.88,12.31-17.1c15.567,8.753,24.403,21.627,26.511,38.62
		c2.119,17.133-2.78,31.63-14.701,43.49c-2.406,2.387-6,4.727-10.779,7.02c-14.35,6.89-30.971,4.09-42.97-6.06
		c-11.22-9.49-16.75-24.67-15.83-39.67c0.646-10.64,4.22-20.323,10.72-29.05C172.383,96.376,177.553,91.879,183.68,88.54
		L183.68,88.54z"/>
	<circle id="svg_34" fill="#001C0C" cx="89.65" cy="120.629" r="5.62"/>
	<path id="svg_33" fill="#001C0C" d="M343.02,143.56c-0.426,1.153-0.68,2.437-0.76,3.85c-0.21,3.47-4.7,5.34-5.91,1.44
		c-0.493-1.593-0.853-3.367-1.08-5.32c-0.051-0.428-0.274-0.818-0.619-1.08c-1.587-1.193-3.407-1.983-5.46-2.37
		c-1.73-0.33-3.45-1.7-3.091-3.69c0.228-1.24,0.884-2.047,1.971-2.42c1.233-0.433,2.493-0.816,3.779-1.15
		c3.61-0.93,3.91-4.97,4.181-7.96c0.086-0.94,0.477-1.69,1.17-2.25c2.91-2.35,5.42,1.14,5.28,3.82c-0.141,2.87,1.35,5.9,4.47,6.42
		c2.479,0.41,6.33,2.02,4.7,5.35c-0.44,0.893-1.167,1.463-2.181,1.71c-1.153,0.273-2.29,0.63-3.41,1.07
		C344.8,141.479,343.521,142.209,343.02,143.56L343.02,143.56z"/>
	<path id="svg_32" fill="#F18F2D" d="M70.58,157.529c-3.94-0.06-7.354-1.187-10.24-3.38c-2.08-1.58-4.85-3.84-6.21-6.33
		c-0.95-1.75-1.68-3.53-3.04-5.01c-0.526-0.574-1.043-1.144-1.55-1.71c-0.22-0.247-0.487-0.423-0.8-0.53
		c-6.12-2.13-8.11-5.08-12.17-8.91c0.08-1.414-0.05-2.624-0.39-3.63c1.36-0.233,2.716-0.83,4.07-1.79
		c0.282-0.194,0.668-0.124,0.862,0.158c0.014,0.02,0.026,0.041,0.038,0.062c3.067,5.747,7.92,8.997,14.56,9.75
		c0.347,0.04,0.583,0.223,0.71,0.55c0.34,0.91,0.36,2.04,0.73,2.93c3.127,7.513,8.66,11.71,16.6,12.59
		c1.013,0.113,1.013,0.227,0,0.34C71.39,152.879,70.333,154.516,70.58,157.529L70.58,157.529z"/>
	<path id="svg_31" fill="#FFFFFF" d="M36.18,128.029c0.34,1.007,0.47,2.217,0.39,3.63c-0.32,4.8-0.02,9.65-0.05,14.42
		c-0.107,13.053-0.133,26.163-0.08,39.331c0.01,4.27,1.19,8.409,4.76,10.85c2.69,1.84,7,1.89,10.36,1.9
		c7.04,0.02,14.28-0.034,21.72-0.16c-2.68,6.56-6.953,10.629-12.82,12.209c-6.513,0.054-12.95,0.044-19.31-0.029
		c-6.38-0.07-12.25-4.44-12.24-11.01c0.006-23.407,0.037-46.974,0.09-70.701c0.007-0.267,0.14-0.4,0.4-0.4L36.18,128.029
		L36.18,128.029z"/>
	<path id="svg_30" fill="#A34F48" d="M210.46,136.31c-4.38,0.31-8.51,3.21-11.97,5.63c-0.587,0.414-1.207,0.473-1.86,0.18
		l-6.51-2.92c5.554-5,12.12-8.034,19.7-9.1c0.316-0.044,0.609,0.177,0.654,0.494c0.004,0.028,0.006,0.057,0.006,0.085L210.46,136.31
		z"/>
	<path id="svg_29" fill="#FFC858" d="M36.57,131.66c4.06,3.83,6.05,6.78,12.17,8.91c0.313,0.107,0.58,0.284,0.8,0.53
		c0.507,0.566,1.023,1.137,1.55,1.71c1.36,1.48,2.09,3.26,3.04,5.01c1.36,2.49,4.13,4.75,6.21,6.33c2.887,2.193,6.3,3.32,10.24,3.38
		c-0.03,1.88-0.48,5.2,0.72,6.59c1.46,1.7,4.34,1.43,5.73-0.21c0.208-0.239,0.324-0.54,0.33-0.85l0.2-5.55
		c1.753,0.094,3.42-0.183,5-0.83c0.275-0.116,0.592,0.017,0.708,0.297c0.023,0.055,0.037,0.113,0.042,0.173
		c0.527,7.8,0.71,15.773,0.55,23.92c-0.133,6.866-3.173,12.21-9.12,16.03c-0.467,0.3-0.547,0.643-0.24,1.029
		c-0.68,0.041-1.087-0.003-1.22-0.129c-7.44,0.126-14.68,0.18-21.72,0.16c-3.36-0.011-7.67-0.061-10.36-1.9
		c-3.57-2.44-4.75-6.58-4.76-10.85c-0.053-13.167-0.027-26.277,0.08-39.331C36.55,141.31,36.25,136.459,36.57,131.66L36.57,131.66z
		 M51.89,146.379c0-2.032-1.648-3.68-3.68-3.68h-0.14c-2.032,0-3.68,1.647-3.68,3.68v39.14c0,2.032,1.647,3.68,3.68,3.68h0.14
		c2.032,0,3.68-1.647,3.68-3.68V146.379z M77.58,177.489c-0.033-1.844-1.555-3.313-3.399-3.28c0,0-0.001,0-0.001,0h-0.4
		c-1.844,0.033-3.313,1.555-3.28,3.399c0,0,0,0,0,0.001l0.16,8.859c0.033,1.846,1.555,3.313,3.399,3.281c0,0,0,0,0.001,0h0.4
		c1.844-0.033,3.313-1.555,3.28-3.399c0-0.001,0-0.001,0-0.001L77.58,177.489z"/>
	<path id="svg_28" fill="#FE8F83" d="M210.46,136.31c0.307,6.153,0.24,10.093-0.2,11.82c-1.547,6.14-5.38,9.3-11.5,9.48
		c-4.93,0.14-9.619-3.3-11.02-8.26c-0.98-3.48-0.188-6.863,2.38-10.15l6.51,2.92c0.653,0.293,1.273,0.233,1.86-0.18
		C201.95,139.52,206.08,136.62,210.46,136.31z"/>
	<path id="svg_27" fill="#001C0C" d="M48.07,142.7h0.14c2.032,0,3.68,1.647,3.68,3.68v39.14c0,2.032-1.648,3.68-3.68,3.68h-0.14
		c-2.032,0-3.68-1.647-3.68-3.68v-39.14C44.39,144.347,46.038,142.7,48.07,142.7z"/>
	<path id="svg_26" fill="#F18F2D" d="M94.22,186.029c-1.027,0.4-1.954,1.01-2.78,1.83c-0.546,0.54-1.037,1.48-1.47,2.82
		c-2.14,6.619-9,8.529-15.47,7.449c-0.307-0.387-0.227-0.729,0.24-1.029c5.946-3.82,8.986-9.164,9.12-16.03
		c0.16-8.146-0.023-16.12-0.55-23.92c-0.023-0.303-0.283-0.531-0.581-0.511c-0.058,0.004-0.116,0.018-0.169,0.041
		c-1.58,0.647-3.247,0.924-5,0.83c-0.113-1.773-0.79-3.276-2.03-4.51c-0.413-0.414-0.33-0.63,0.25-0.65
		c4.92-0.21,9.01-1.55,12.52-5.13c0.333-0.34,0.673-0.35,1.02-0.03c1.253,1.146,2.647,2.043,4.18,2.69
		c0.374,0.16,0.56,0.443,0.56,0.85L94.22,186.029L94.22,186.029z"/>
	<path id="svg_25" fill="#D28C64" d="M124.11,191.069c-1.046-2-2.146-3.55-3.3-4.649c-1-0.947-2.46-1.464-4.38-1.551
		c-3.44-0.152-6.9-0.137-10.38,0.051l-0.11-24.4c0-0.434,0.213-0.68,0.64-0.74c2.913-0.42,5.73-0.097,8.45,0.97
		c6.32,2.473,10.15,7.363,11.49,14.67C127.533,180.906,126.73,186.123,124.11,191.069L124.11,191.069z"/>
	<path id="svg_24" fill="#FFFFFF" d="M296.8,174.83c3.474,3.086,6.934,6.327,10.38,9.719c7.28,7.168,13.224,15.294,17.83,24.381
		c6.214,12.267,8.087,25.533,5.62,39.8c0.24-8.16-0.036-13.851-0.83-17.069c-0.553-2.234-2.333-3.574-5.34-4.021
		c-0.24-0.707-0.59-2.114-1.05-4.22c-1.061-4.82-3.09-10.044-6.09-15.67c-6.55-12.291-15.53-21.211-26.11-30.42
		c-1.21-1.06-1.18-2.87,0.011-3.97C292.68,172.033,294.54,172.523,296.8,174.83L296.8,174.83z"/>
	<path id="svg_23" fill="#001C0C" d="M73.785,174.214l0.4-0.007c1.844-0.032,3.365,1.437,3.397,3.281l0.155,8.859
		c0.032,1.844-1.437,3.365-3.281,3.396l-0.4,0.008c-1.844,0.031-3.366-1.438-3.398-3.281l-0.154-8.859
		C70.471,175.768,71.94,174.246,73.785,174.214z"/>
	<path id="svg_22" fill="#A34F48" d="M124.11,191.069c-2.013,3.894-5.157,6.217-9.43,6.97c-2.66,0.474-5.317,0.551-7.97,0.23
		c-0.454-0.057-0.794-0.447-0.79-0.91l0.13-12.439c3.48-0.188,6.94-0.203,10.38-0.051c1.92,0.087,3.38,0.604,4.38,1.551
		C121.963,187.52,123.063,189.069,124.11,191.069L124.11,191.069z"/>
	<path id="svg_21" fill="#FEC6AE" d="M94.22,186.029c0.08,3.561,0.106,7.023,0.08,10.391c-0.066,9.152-4.69,13.77-13.87,13.85
		c-6.74,0.061-13.397,0.04-19.97-0.061c5.867-1.58,10.14-5.649,12.82-12.209c0.133,0.126,0.54,0.17,1.22,0.129
		c6.47,1.08,13.33-0.83,15.47-7.449c0.433-1.34,0.923-2.28,1.47-2.82C92.267,187.039,93.193,186.43,94.22,186.029z"/>
	<path id="svg_20" fill="#A34F48" d="M103.13,211.719c0.494-0.686,1.037-1.329,1.63-1.93c0.227-0.227,0.503-0.346,0.83-0.359
		l7.22-0.26c0.342-0.012,0.629,0.256,0.64,0.599c0.002,0.082-0.011,0.164-0.04,0.241c-1,2.566-1.974,5.243-2.92,8.029
		c-3.713,10.928-5.503,22.32-5.37,34.18c0.006,0.365-0.284,0.666-0.648,0.672c-0.021,0.001-0.042,0-0.062-0.001
		c-18.247-1.214-32.523-8.573-42.83-22.08c-1.907-2.5-3.347-5.08-4.32-7.74c-0.083-0.24,0.045-0.502,0.285-0.585
		c0.047-0.016,0.096-0.024,0.145-0.025c5.927,0.008,11.907,0.107,17.94,0.301c6.487,0.207,11.367-0.217,14.64-1.271
		C95.323,219.876,99.61,216.619,103.13,211.719L103.13,211.719z"/>
	<path id="svg_19" fill="#FFFFFF" d="M126.6,280.899l-4.24,0.44c-0.353,0.033-0.59-0.117-0.71-0.451
		c-3.88-10.709-4.71-21.139-4.26-32.959c0.513-13.453,3.736-26.311,9.67-38.57c1.553-0.18,2.593-0.061,3.12,0.359
		c0.844,0.674,1.134,1.828,0.71,2.82c-6.76,15.807-9.48,32.273-8.16,49.4C123.23,268.379,124.52,274.699,126.6,280.899z"/>
	<path id="svg_18" fill="#FFFFFF" d="M236.75,231c-3.507,2.406-6.094,4.613-7.76,6.619c-6.561,7.906-9.367,16.594-8.42,26.061
		c0.393,3.953,2.003,8.377,4.83,13.27c-0.08,2.154-0.51,4.177-1.291,6.07c-1.199,2.949-2.09,5.79-3.77,8.49
		c-1.939,3.113-4.293,5.753-7.06,7.92c-10.94,8.594-23,10.949-36.18,7.07c-2.553-0.754-5.19-1.971-7.91-3.65
		c-0.993-0.613-2.073-1.273-3.24-1.98c-3-3.766-6.247-7.07-9.74-9.91c-8.593-13.32-11.12-26.977-7.58-40.97
		c4.62-18.28,17.75-32.149,36.011-37.729c4.379-1.34,9.016-1.917,13.909-1.73C214.63,211.156,227.363,217.979,236.75,231z"/>
	<path id="svg_17" fill="#A34F48" d="M260.04,216.489l3.149,7.29c0.134,0.313,0.031,0.477-0.31,0.49l-6.22,0.29
		C253.646,220.053,254.773,217.363,260.04,216.489z"/>
	<path id="svg_16" fill="#A34F48" d="M324.46,227.64c3.007,0.446,4.787,1.786,5.34,4.021c0.794,3.219,1.07,8.909,0.83,17.069
		c-0.613,6.8-2.727,12.956-6.34,18.47c-8.833,13.486-21.417,21.051-37.75,22.69c-1.42,0.149-2.47,0.319-3.67-0.49
		c-9.733-6.573-20.034-9.187-30.9-7.84c-1.3,0.159-2.517-0.011-3.649-0.511c-10.521-4.6-17.67-16.17-14.15-27.25
		c1.613-5.105,4.777-9.25,9.49-12.43c0.347,0.428,1.227,0.598,2.64,0.51c1.294,2.574,2.07,4.588,2.33,6.041
		c0.79,4.32-0.08,10.109,0.82,13.99c1.033,4.466,3.646,7.926,7.84,10.379c11.681,6.84,28.649,4.94,39.75-0.83
		c8.173-4.24,14.573-10.449,19.2-18.629c3.187-5.627,4.823-12.17,4.91-19.631C321.184,230.467,322.287,228.613,324.46,227.64
		L324.46,227.64z"/>
	<path id="svg_15" fill="#FFFFFF" d="M294.62,229.219c-2.399,5.174-6.196,8.631-11.39,10.371c-4.467,1.5-9.317,2.25-14.551,2.25
		c-7.627,0-15.086,0.014-22.38,0.039c-1.413,0.088-2.293-0.082-2.64-0.51c5.26-3.039,10.31-4.533,15.15-4.479
		c8.293,0.079,13.543,0.021,15.75-0.181C281.38,236.09,287.38,233.59,294.62,229.219z"/>
	<path id="svg_14" fill="#001C0C" d="M60.48,293.459c-0.2,0.69-0.73,1.24-0.85,1.9c-0.267,1.367-0.617,2.826-1.05,4.38
		c-0.67,2.41-3.06,3.07-5.02,1.36c-0.27-0.238-0.438-0.57-0.47-0.93c-0.04-0.474-0.21-0.895-0.51-1.26
		c-0.233-0.294-0.337-0.627-0.31-1c0.146-1.794-0.396-3.294-1.63-4.5c-1.43-1.4-3.42-1.74-5.34-2.201
		c-2.31-0.539-3.67-2.6-2.25-4.859c0.1-0.167,0.24-0.29,0.42-0.37c1.586-0.753,3.21-1.397,4.87-1.931
		c2.95-0.939,4.26-3.959,4.17-6.85c-0.06-2.27,2.05-4.619,4.45-3.55c2.54,1.14,2.23,4.91,2.53,7.25
		c0.046,0.36,0.196,0.673,0.45,0.94c0.81,0.85,1.61,1.76,2.78,2.109c1.613,0.48,3.143,1.027,4.59,1.641
		c1.253,0.533,1.803,1.57,1.65,3.109c-0.097,0.938-0.735,1.732-1.63,2.03l-6.22,2.069C60.79,292.912,60.58,293.133,60.48,293.459z"
		/>
	<path id="svg_13" fill="#FEC6AE" d="M225.4,276.949c2.187,3.834,4.91,7.137,8.17,9.91c0.268,0.23,0.299,0.635,0.068,0.902
		c-0.035,0.041-0.074,0.077-0.119,0.107c-10.166,6.986-17.893,15.881-23.18,26.68c-4.24,1.613-7.08,2.588-8.52,2.92
		c-9.381,2.141-18.62,1.137-27.72-3.01l-8.15-13.59c1.167,0.707,2.247,1.367,3.24,1.98c2.72,1.68,5.357,2.896,7.91,3.65
		c13.18,3.879,25.24,1.523,36.179-7.07c2.768-2.167,5.121-4.807,7.061-7.92c1.68-2.7,2.57-5.541,3.77-8.49
		C224.891,281.126,225.32,279.104,225.4,276.949z"/>
	<path id="svg_12" fill="#D28C64" d="M165.11,327.789c-1.04,6.721-2.727,12.744-5.06,18.07l-8.33,0.21
		c1.06-4.294,0.566-8.313-1.48-12.06c-2.88-5.27-7.83-8.78-13.84-9.641c-8.827-1.273-15.747,1.854-20.76,9.381
		c-2.487,3.719-3.264,7.854-2.33,12.399l-13.81-0.06c-0.668-0.007-1.281-0.369-1.61-0.951c-6.44-11.549-6.26-25.639,1.15-36.779
		c12.46-18.75,36.83-19.3,52.56-4.73C158.813,310.31,163.317,318.363,165.11,327.789z M145.57,311.319c0-2.949-2.391-5.34-5.34-5.34
		s-5.34,2.391-5.34,5.34s2.391,5.341,5.34,5.341S145.57,314.269,145.57,311.319z M128.42,311.439c0-2.928-2.373-5.3-5.3-5.3
		c-2.927,0-5.3,2.372-5.3,5.3s2.373,5.3,5.3,5.3C126.047,316.739,128.42,314.367,128.42,311.439z M113.52,322.459
		c0-2.977-2.413-5.39-5.39-5.39l0,0c-2.977,0-5.39,2.413-5.39,5.39l0,0c0,2.977,2.413,5.391,5.39,5.391l0,0
		C111.107,327.85,113.52,325.436,113.52,322.459L113.52,322.459z"/>
	<path id="svg_11" fill="#D28C64" d="M269.79,346c0.714-7.92-2.14-14.064-8.56-18.431c-4.94-3.353-9.91-4.497-14.91-3.43
		c-11.707,2.5-16.747,9.81-15.12,21.93l-12.63,0.13c-0.332,0.007-0.614-0.244-0.65-0.58c-1.6-15.713,2.934-29.199,13.6-40.459
		c9.28-9.791,23.67-14.701,36.67-9.641c10.367,4.04,17.07,11.23,20.11,21.57c2.946,10.053,1.673,19.606-3.819,28.66
		c-0.131,0.211-0.362,0.339-0.61,0.34L269.79,346L269.79,346z M257.859,316.91c2.84,0.23,5.342-2.034,5.591-5.061
		c0.247-3.025-1.853-5.666-4.69-5.9c-2.84-0.23-5.342,2.033-5.59,5.061C252.924,314.035,255.022,316.675,257.859,316.91z
		 M242.03,316.84c2.794-0.56,4.59-3.361,4.011-6.259c-0.001-0.001-0.001-0.001-0.001-0.001c-0.576-2.898-3.31-4.797-6.104-4.242
		c-0.002,0.001-0.004,0.002-0.006,0.002c-2.794,0.559-4.59,3.361-4.01,6.258v0.002c0.576,2.898,3.31,4.797,6.104,4.24
		C242.026,316.84,242.028,316.84,242.03,316.84z M274.09,327.989c2.858-0.081,5.105-2.646,5.02-5.729
		c-0.082-3.086-2.467-5.527-5.327-5.451c-0.004,0-0.009,0-0.013,0.001c-2.857,0.081-5.104,2.646-5.02,5.729
		c0.082,3.086,2.468,5.527,5.328,5.451C274.082,327.99,274.086,327.99,274.09,327.989z"/>
	<circle id="svg_10" fill="#371F17" cx="140.23" cy="311.32" r="5.34"/>
	
		<ellipse id="svg_9" transform="matrix(0.9966 0.0819 -0.0819 0.9966 26.3902 -20.1202)" fill="#371F17" cx="258.304" cy="311.431" rx="5.16" ry="5.5"/>
	
		<ellipse id="svg_8" transform="matrix(0.9806 -0.1961 0.1961 0.9806 -56.4142 53.2935)" fill="#371F17" cx="240.975" cy="311.592" rx="5.16" ry="5.35"/>
	<circle id="svg_7" fill="#371F17" cx="123.12" cy="311.439" r="5.3"/>
	<path id="svg_6" fill="#A34F48" d="M174.1,314.459c9.1,4.146,18.339,5.15,27.72,3.01c1.439-0.332,4.279-1.307,8.52-2.92
		c-2.64,6.041-4.189,12.154-4.65,18.34c-0.049,0.607-0.488,1.107-1.08,1.23c-8.373,1.747-16.666,1.543-24.879-0.609
		c-0.576-0.15-1.003-0.637-1.081-1.23c-0.293-2.293-0.753-4.627-1.38-7C176.363,321.859,175.307,318.253,174.1,314.459z"/>
	
		<ellipse id="svg_5" transform="matrix(0.9996 -0.028 0.028 0.9996 -8.919 7.7955)" fill="#371F17" cx="273.924" cy="322.402" rx="5.18" ry="5.59"/>
	<circle id="svg_4" fill="#371F17" cx="108.13" cy="322.459" r="5.39"/>
	<path id="svg_3" fill="#371F17" d="M151.72,346.069l-38.41,0.08c-0.934-4.546-0.157-8.681,2.33-12.399
		c5.013-7.527,11.933-10.654,20.76-9.381c6.01,0.86,10.96,4.37,13.84,9.641C152.287,337.756,152.78,341.775,151.72,346.069
		L151.72,346.069z"/>
	<path id="svg_2" fill="#371F17" d="M269.79,346l-38.59,0.069c-1.627-12.12,3.413-19.43,15.12-21.93c5-1.067,9.97,0.077,14.91,3.43
		C267.65,331.936,270.504,338.08,269.79,346z"/>
	<path id="svg_1" fill="#A34F48" d="M165.11,327.789c1.547,5.887,2.107,11.758,1.68,17.61c-0.027,0.354-0.217,0.526-0.57,0.521
		l-6.17-0.061C162.383,340.533,164.07,334.51,165.11,327.789z"/>
</g>
</svg>
